<svg xmlns="http://www.w3.org/2000/svg" width="67.815" height="148.221" viewBox="0 0 67.815 148.221">
  <g id="Group_2" data-name="Group 2" transform="translate(0 148.221)">
    <path id="Path_45" data-name="Path 45" d="M12.926-144.051h34.06a15.072,15.072,0,0,1,15,15v10a15.072,15.072,0,0,1-15,15H12.926Z" fill="#fff"/>
    <path id="Path_46" data-name="Path 46" d="M63.806-102.211H11.136v-26.81a16.92,16.92,0,0,1,16.82-16.82h19a16.92,16.92,0,0,1,16.82,16.82Zm-49.1-3.57h45.53v-23.24a13.333,13.333,0,0,0-13.25-13.25h-19a13.333,13.333,0,0,0-13.25,13.25Z" fill="#584e53"/>
    <path id="Path_47" data-name="Path 47" d="M32.516-107.241h9.92v-9.92h-9.92Z" fill="#fff" fill-rule="evenodd"/>
    <path id="Path_48" data-name="Path 48" d="M44.216-105.461H30.736v-13.49h13.48Zm-9.92-3.57h6.34v-6.35h-6.35Z" fill="#584e53"/>
    <path id="Path_49" data-name="Path 49" d="M34.836-107.241h.4v-9.92h-.4Z" fill="#868686" fill-rule="evenodd"/>
    <path id="Path_50" data-name="Path 50" d="M33.046-105.471h3.96v-13.48h-3.96Z" fill="#584e53" fill-rule="evenodd"/>
    <path id="Path_51" data-name="Path 51" d="M36.466-107.241h.4v-9.92h-.4Z" fill="#868686" fill-rule="evenodd"/>
    <path id="Path_52" data-name="Path 52" d="M34.676-105.471h3.96v-13.48h-3.96Z" fill="#584e53" fill-rule="evenodd"/>
    <path id="Path_53" data-name="Path 53" d="M38.086-107.241h.4v-9.92h-.4Z" fill="#868686" fill-rule="evenodd"/>
    <path id="Path_54" data-name="Path 54" d="M36.306-105.471h3.96v-13.48h-3.96Z" fill="#584e53" fill-rule="evenodd"/>
    <path id="Path_55" data-name="Path 55" d="M39.716-107.241h.4v-9.92h-.4Z" fill="#868686" fill-rule="evenodd"/>
    <path id="Path_56" data-name="Path 56" d="M37.936-105.471h3.97v-13.48h-3.97Z" fill="#584e53" fill-rule="evenodd"/>
    <path id="Path_57" data-name="Path 57" d="M25.976-141.671h23v-4.76h-23Z" fill="#626262" fill-rule="evenodd"/>
    <path id="Path_58" data-name="Path 58" d="M50.756-139.891H24.186v-8.33h26.57Zm-23-3.57H47.2v-1.19H27.756Z" fill="#584e53"/>
    <path id="Path_59" data-name="Path 59" d="M16.846-109.551h33.32a7.968,7.968,0,0,1,7.93,7.93,7.968,7.968,0,0,1-7.93,7.93H16.846Z"/>
    <path id="Path_60" data-name="Path 60" d="M59.886-91.9H15.066v-9.71a9.776,9.776,0,0,1,9.71-9.72h25.39a9.777,9.777,0,0,1,9.72,9.72Zm-41.25-3.56h37.68v-6.15a6.19,6.19,0,0,0-6.15-6.15H24.776a6.18,6.18,0,0,0-6.14,6.15Z" fill="#584e53"/>
    <path id="Path_61" data-name="Path 61" d="M37.856-108.751c.949,0,1.72,3.2,1.72,7.14s-.771,7.14-1.72,7.14-1.72-3.2-1.72-7.14S36.907-108.751,37.856-108.751Z" fill="#fff" fill-rule="evenodd"/>
    <path id="Path_62" data-name="Path 62" d="M37.856-92.691c-3.05,0-3.5-5.59-3.5-8.92s.45-8.93,3.5-8.93,3.5,5.59,3.5,8.93S40.9-92.691,37.856-92.691Z" fill="#584e53"/>
    <path id="Path_63" data-name="Path 63" d="M26.8-108.751c.949,0,1.72,3.2,1.72,7.14s-.771,7.14-1.72,7.14-1.72-3.2-1.72-7.14S25.847-108.751,26.8-108.751Z" fill="#fff" fill-rule="evenodd"/>
    <path id="Path_64" data-name="Path 64" d="M26.8-110.531c1.932,0,3.5,4,3.5,8.92s-1.568,8.92-3.5,8.92-3.5-4-3.5-8.92S24.865-110.531,26.8-110.531Z" fill="#584e53" fill-rule="evenodd"/>
    <path id="Path_65" data-name="Path 65" d="M48.156-108.751c.949,0,1.72,3.2,1.72,7.14s-.771,7.14-1.72,7.14-1.72-3.2-1.72-7.14S47.207-108.751,48.156-108.751Z" fill="#fff" fill-rule="evenodd"/>
    <path id="Path_66" data-name="Path 66" d="M48.156-92.691c-3,0-3.5-5.59-3.5-8.92s.45-8.93,3.5-8.93,3.5,5.59,3.5,8.93S51.2-92.691,48.156-92.691Z" fill="#584e53"/>
    <path id="Path_67" data-name="Path 67" d="M20.816-42.521l-3.97-41.24H58.1l-3.96,41.24Z" fill="#fff"/>
    <path id="Path_68" data-name="Path 68" d="M55.756-40.731H19.2l-4.31-44.82h45.18ZM22.436-44.3h30.08l3.62-37.68H18.816Z" fill="#584e53"/>
    <path id="Path_69" data-name="Path 69" d="M20.816-38.951h33.32v-3.57H20.816Z" fill="#626262" fill-rule="evenodd"/>
    <path id="Path_70" data-name="Path 70" d="M19.026-37.161h36.89V-44.3H19.026Z" fill="#584e53"/>
    <path id="Path_71" data-name="Path 71" d="M11.846-12.131l5.22-23.07c.5-2.22,2.13-3.75,4-3.75h32.57a4.372,4.372,0,0,1,4,3.68l5.5,23.07c.78,3.28-1.21,6.57-4,6.57H15.846C13.1-5.631,11.106-8.861,11.846-12.131Z" fill="#626262"/>
    <path id="Path_72" data-name="Path 72" d="M59.106-3.851H15.846a5.524,5.524,0,0,1-4.35-2.18,7.774,7.774,0,0,1-1.39-6.49l5.22-23.03a6.167,6.167,0,0,1,5.73-5.13h32.58a6.186,6.186,0,0,1,5.71,5.05l5.49,23.07a7.725,7.725,0,0,1-1.35,6.55A5.514,5.514,0,0,1,59.106-3.851Zm-47.26-8.28,1.74.39a4.232,4.232,0,0,0,.7,3.48,2,2,0,0,0,1.56.85h43.26a2,2,0,0,0,1.56-.86,4.193,4.193,0,0,0,.68-3.51l-5.49-23.08a2.666,2.666,0,0,0-2.24-2.3H21.056c-1,0-1.94,1-2.25,2.35l-5.17,23.07Z" fill="#584e53"/>
    <path id="Path_73" data-name="Path 73" d="M43.326-77.631a3.362,3.362,0,0,0-3.36-3.36h-4.98a3.362,3.362,0,0,0-3.36,3.36v26.2a3.362,3.362,0,0,0,3.36,3.36h4.98a3.362,3.362,0,0,0,3.36-3.36Z" fill="#fff" fill-rule="evenodd"/>
    <path id="Path_74" data-name="Path 74" d="M39.966-46.281h-5a5.185,5.185,0,0,1-5.15-5.15v-26.2a5.175,5.175,0,0,1,5.15-5.14h5a5.174,5.174,0,0,1,5.14,5.14v26.2A5.175,5.175,0,0,1,39.966-46.281Zm-5-32.92h-.01a1.577,1.577,0,0,0-1.57,1.57v26.2a1.588,1.588,0,0,0,1.58,1.58h5a1.577,1.577,0,0,0,1.57-1.57v-26.21a1.577,1.577,0,0,0-1.57-1.57Z" fill="#584e53"/>
    <path id="Path_75" data-name="Path 75" d="M36.486-42.511h1.98v-41.25h-1.98Z" fill="#fff" fill-rule="evenodd"/>
    <path id="Path_76" data-name="Path 76" d="M34.7-40.731h5.55v-44.82H34.7Z" fill="#584e53" fill-rule="evenodd"/>
    <path id="Path_77" data-name="Path 77" d="M33.906-38.951h12.73v11.11H33.906a5.576,5.576,0,0,1-5.55-5.55v-.01A5.576,5.576,0,0,1,33.906-38.951Z"/>
    <path id="Path_78" data-name="Path 78" d="M41.046-26.061h-7.14a7.375,7.375,0,0,1-7.34-7.33v-7.34h21.81v7.34A7.375,7.375,0,0,1,41.046-26.061Zm-10.91-11.1v3.77a3.8,3.8,0,0,0,3.77,3.77h7.14a3.808,3.808,0,0,0,3.77-3.77v-3.77Z" fill="#584e53"/>
    <path id="Path_79" data-name="Path 79" d="M61.726-48.2h-.18a1.8,1.8,0,0,1-1.6-1.95l2.37-23.78a1.79,1.79,0,0,1,1.775-1.609,1.792,1.792,0,0,1,1.784,1.784q0,.088-.009.175L63.5-49.8A1.787,1.787,0,0,1,61.726-48.2Z" fill="#584e53"/>
    <path id="Path_80" data-name="Path 80" d="M7.156,0h-.13a7.075,7.075,0,0,1-5.69-2.74c-2.1-2.89-1.13-6.77-1-7.2a1.794,1.794,0,0,1,1.692-1.2,1.8,1.8,0,0,1,1.79,1.79,1.788,1.788,0,0,1-.032.334c-.19.73-.48,2.91.46,4.19a3.712,3.712,0,0,0,3,1.27,1.789,1.789,0,0,1,1.736,1.78A1.789,1.789,0,0,1,7.2,0Z" fill="#584e53"/>
    <path id="Path_81" data-name="Path 81" d="M12.926-144.051h34.06a15.072,15.072,0,0,1,15,15v10a15.072,15.072,0,0,1-15,15H12.926Z" fill="#fff"/>
    <path id="Path_82" data-name="Path 82" d="M63.806-102.211H11.136v-26.81a16.92,16.92,0,0,1,16.82-16.82h19a16.92,16.92,0,0,1,16.82,16.82Zm-49.1-3.57h45.53v-23.24a13.333,13.333,0,0,0-13.25-13.25h-19a13.333,13.333,0,0,0-13.25,13.25Z" fill="#584e53"/>
    <path id="Path_83" data-name="Path 83" d="M25.976-141.671h23v-4.76h-23Z" fill="#626262" fill-rule="evenodd"/>
    <path id="Path_84" data-name="Path 84" d="M50.756-139.891H24.186v-8.33h26.57Zm-23-3.57H47.2v-1.19H27.756Z" fill="#584e53"/>
    <path id="Path_85" data-name="Path 85" d="M16.846-109.551h33.32a7.968,7.968,0,0,1,7.93,7.93,7.968,7.968,0,0,1-7.93,7.93H16.846Z" fill="#7caad6"/>
    <path id="Path_86" data-name="Path 86" d="M59.886-91.9H15.066v-9.71a9.776,9.776,0,0,1,9.71-9.72h25.39a9.777,9.777,0,0,1,9.72,9.72Zm-41.25-3.56h37.68v-6.15a6.19,6.19,0,0,0-6.15-6.15H24.776a6.18,6.18,0,0,0-6.14,6.15Z" fill="#584e53"/>
    <path id="Path_87" data-name="Path 87" d="M21.756-107.421h25.61a5.858,5.858,0,0,1,5.83,5.83v.35a5.858,5.858,0,0,1-5.83,5.83H21.756Z" fill="#a3d1f6"/>
    <path id="Path_88" data-name="Path 88" d="M10.856-85.351l6-8.33h41.25l6,8.33a1,1,0,0,1,.193.59,1,1,0,0,1-1,1H11.636a1,1,0,0,1-.973-1A1,1,0,0,1,10.856-85.351Z" fill="#bfb166"/>
    <path id="Path_89" data-name="Path 89" d="M58.076-93.681l6,8.33a1,1,0,0,1,.193.59,1,1,0,0,1-1,1H11.634a1,1,0,0,1-1-1,1,1,0,0,1,.193-.59l6-8.33h41.25m0-3.57H16.826a3.583,3.583,0,0,0-2.9,1.49l-6,8.33a4.561,4.561,0,0,0-.863,2.67,4.582,4.582,0,0,0,4.56,4.56H63.246a4.6,4.6,0,0,0,4.569-4.58,4.581,4.581,0,0,0-.859-2.67l-6-8.32a3.573,3.573,0,0,0-2.89-1.48Z" fill="#584e53"/>
    <path id="Path_90" data-name="Path 90" d="M15.606-84l3.18-9.61h37.35l3.2,9.61Z" fill="#efd856"/>
    <path id="Path_91" data-name="Path 91" d="M20.816-42.521l-3.97-39.57H58.1l-3.96,39.57Z" fill="#fff"/>
    <path id="Path_92" data-name="Path 92" d="M55.746-40.731H19.2l-4.32-43.15h45.19ZM22.426-44.3h30.09l3.61-36H18.816Z" fill="#584e53"/>
    <path id="Path_93" data-name="Path 93" d="M22.956-38.951H52v-3.57H22.956Z" fill="#7caad6" fill-rule="evenodd"/>
    <path id="Path_94" data-name="Path 94" d="M11.846-12.131l5.22-23.07c.5-2.22,2.13-3.75,4-3.75h32.57a4.372,4.372,0,0,1,4,3.68l5.5,23.07c.78,3.28-1.21,6.57-4,6.57H15.846C13.1-5.631,11.106-8.861,11.846-12.131Z" fill="#bfb166"/>
    <path id="Path_95" data-name="Path 95" d="M59.106-3.851H15.846a5.524,5.524,0,0,1-4.35-2.18,7.774,7.774,0,0,1-1.39-6.49l5.22-23.03a6.167,6.167,0,0,1,5.73-5.13h32.58a6.186,6.186,0,0,1,5.71,5.05l5.49,23.07a7.725,7.725,0,0,1-1.35,6.55A5.514,5.514,0,0,1,59.106-3.851Zm-47.26-8.28,1.74.39a4.232,4.232,0,0,0,.7,3.48,2,2,0,0,0,1.56.85h43.26a2,2,0,0,0,1.56-.86,4.193,4.193,0,0,0,.68-3.51l-5.49-23.08a2.666,2.666,0,0,0-2.24-2.3H21.056c-1,0-1.94,1-2.25,2.35l-5.17,23.07Z" fill="#584e53"/>
    <path id="Path_96" data-name="Path 96" d="M20.346-7.231a2.272,2.272,0,0,1-1.84-1.16,5.752,5.752,0,0,1-.71-4.09l4.13-21.92c.33-1.75,1.38-3,2.55-3h25.77c1.16,0,2.2,1.2,2.54,2.92l4.35,21.93a5.792,5.792,0,0,1-.68,4.14,2.3,2.3,0,0,1-1.86,1.17Z" fill="#efd856"/>
    <path id="Path_97" data-name="Path 97" d="M43.326-77.631a3.362,3.362,0,0,0-3.36-3.36h-4.98a3.362,3.362,0,0,0-3.36,3.36v26.2a3.362,3.362,0,0,0,3.36,3.36h4.98a3.362,3.362,0,0,0,3.36-3.36Z" fill="#fff" fill-rule="evenodd"/>
    <path id="Path_98" data-name="Path 98" d="M39.966-46.281h-5a5.185,5.185,0,0,1-5.15-5.15v-26.2a5.175,5.175,0,0,1,5.15-5.14h5a5.174,5.174,0,0,1,5.14,5.14v26.2A5.175,5.175,0,0,1,39.966-46.281Zm-5-32.92h-.01a1.577,1.577,0,0,0-1.57,1.57v26.2a1.588,1.588,0,0,0,1.58,1.58h5a1.577,1.577,0,0,0,1.57-1.57v-26.21a1.577,1.577,0,0,0-1.57-1.57Z" fill="#584e53"/>
    <path id="Path_99" data-name="Path 99" d="M36.666-42.511h1.61v-39.58h-1.61Z" fill="#584e53" fill-rule="evenodd"/>
    <path id="Path_100" data-name="Path 100" d="M33.906-38.951h12.73v11.11H33.906a5.576,5.576,0,0,1-5.55-5.55v-.01A5.576,5.576,0,0,1,33.906-38.951Z" fill="#7caad6"/>
    <path id="Path_101" data-name="Path 101" d="M41.046-26.061h-7.14a7.375,7.375,0,0,1-7.34-7.33v-7.34h21.81v7.34A7.375,7.375,0,0,1,41.046-26.061Zm-10.91-11.1v3.77a3.8,3.8,0,0,0,3.77,3.77h7.14a3.808,3.808,0,0,0,3.77-3.77v-3.77Z" fill="#584e53"/>
    <path id="Path_102" data-name="Path 102" d="M34.976-36.761h8.45v7h-8.45a3.466,3.466,0,0,1-3.45-3.45v-.1A3.466,3.466,0,0,1,34.976-36.761Z" fill="#a3d1f6"/>
    <path id="Path_103" data-name="Path 103" d="M37.476-35.721a2.331,2.331,0,0,1,2.33,2.33,2.331,2.331,0,0,1-2.33,2.33,2.331,2.331,0,0,1-2.33-2.33A2.331,2.331,0,0,1,37.476-35.721Z" fill="#7caad6" fill-rule="evenodd"/>
    <path id="Path_104" data-name="Path 104" d="M37.476-29.281h-.01a4.14,4.14,0,0,1-4.12-4.12,4.14,4.14,0,0,1,4.12-4.12,4.14,4.14,0,0,1,4.12,4.12v.01A4.14,4.14,0,0,1,37.476-29.281Zm0-4.66a.553.553,0,0,0-.55.55.553.553,0,0,0,.55.54.543.543,0,0,0,.54-.54A.553.553,0,0,0,37.476-33.941Z" fill="#584e53"/>
    <path id="Path_105" data-name="Path 105" d="M37.476-32.261h-.05a1.145,1.145,0,0,1-1.14-1.14,1.145,1.145,0,0,1,1.14-1.14,1.145,1.145,0,0,1,1.14,1.14v.009A1.125,1.125,0,0,1,37.476-32.261Z" fill="#a3d1f6"/>
    <path id="Path_106" data-name="Path 106" d="M4.386-15.131a1.659,1.659,0,0,1-.49-.07,1.784,1.784,0,0,1-1.3-1.714,1.779,1.779,0,0,1,.068-.486l5.49-19.29a1.791,1.791,0,0,1,1.715-1.286,1.8,1.8,0,0,1,1.786,1.786,1.789,1.789,0,0,1-.071.5L6.1-16.391A1.774,1.774,0,0,1,4.386-15.131Z" fill="#584e53"/>
    <path id="Path_107" data-name="Path 107" d="M60.636-40.781a1.728,1.728,0,0,1-.32,0,1.8,1.8,0,0,1-1.44-2.07l.44-2.42a1.789,1.789,0,0,1,1.755-1.464,1.792,1.792,0,0,1,1.784,1.784,1.789,1.789,0,0,1-.029.32l-.44,2.41A1.776,1.776,0,0,1,60.636-40.781Z" fill="#584e53"/>
    <path id="Path_108" data-name="Path 108" d="M44.036-117.411a1.561,1.561,0,0,0-1.56-1.56h-10a1.561,1.561,0,0,0-1.56,1.56v5.89a1.561,1.561,0,0,0,1.56,1.56h10a1.561,1.561,0,0,0,1.56-1.56Z" fill="#fff" fill-rule="evenodd"/>
    <path id="Path_109" data-name="Path 109" d="M42.476-108.181h-10a3.366,3.366,0,0,1-3.35-3.35v-5.88a3.366,3.366,0,0,1,3.35-3.35h10a3.366,3.366,0,0,1,3.34,3.35v5.88A3.366,3.366,0,0,1,42.476-108.181Zm-9.78-3.57h9.55v-5.44H32.7Z" fill="#584e53"/>
  </g>
</svg>
