<svg xmlns="http://www.w3.org/2000/svg" width="181.492" height="89.43" viewBox="0 0 181.492 89.43">
  <g id="Group_1" data-name="Group 1" transform="translate(0 89.43)">
    <path id="Path_1" data-name="Path 1" d="M163.2-52.27l-13.31-24.18a5.4,5.4,0,0,0-4.73-2.8H70.691a7.618,7.618,0,0,0-6.57,3.75l-14.14,24-34.54,9.21a7.409,7.409,0,0,0-5.48,7.22l.25,21h154.74V-45.42A14.284,14.284,0,0,0,163.2-52.27Z" fill="#bfb166"/>
    <path id="Path_2" data-name="Path 2" d="M166.451-12.48H8.741l-.26-22.53a8.913,8.913,0,0,1,6.6-8.69l33.94-9.05,13.83-23.51a9.159,9.159,0,0,1,7.86-4.49h74.45a6.909,6.909,0,0,1,6,3.57l13.3,24.19a15.772,15.772,0,0,1,1.94,7.57Zm-154.74-3h151.74V-45.42a12.688,12.688,0,0,0-1.57-6.12l-13.3-24.18a3.905,3.905,0,0,0-3.42-2H70.691a6.156,6.156,0,0,0-5.28,3L50.991-50.17,15.851-40.8a5.905,5.905,0,0,0-4.37,5.75Z" fill="#584e53"/>
    <path id="Path_3" data-name="Path 3" d="M12.741-13.58l-.22-19.38a6.577,6.577,0,0,1,4.88-6.42l32.55-8.67L63.291-70.7a6.837,6.837,0,0,1,5.86-3.34h69.87a4.727,4.727,0,0,1,4.14,2.44l12.53,22.66a13.008,13.008,0,0,1,1.61,6.25v29.11Z" fill="#efd856"/>
    <path id="Path_4" data-name="Path 4" d="M169.911-15.81h-156a2.868,2.868,0,0,0-2.78-2.2H6.291a2.874,2.874,0,0,0-2.86,2.86,2.271,2.271,0,0,0-.66,1.6,2.281,2.281,0,0,0,2.26,2.27h164.88a2.279,2.279,0,0,0,2.119-2.265A2.279,2.279,0,0,0,169.911-15.81Z" fill="#584e53"/>
    <path id="Path_5" data-name="Path 5" d="M56.951-55.84a2,2,0,0,0-.268,1,2.009,2.009,0,0,0,1.988,2h96.65a1.939,1.939,0,0,0,1.923-1.93,1.931,1.931,0,0,0-.233-.92l-9.12-16.57a6.2,6.2,0,0,0-5.44-3.22H72.691a7.227,7.227,0,0,0-6.23,3.56Z" fill="#7caad6"/>
    <path id="Path_6" data-name="Path 6" d="M155.321-51.32H58.691a3.507,3.507,0,0,1-3.482-3.49,3.49,3.49,0,0,1,.482-1.77l9.46-16.08a8.769,8.769,0,0,1,7.52-4.3h69.81a7.74,7.74,0,0,1,6.76,4l9.11,16.57a3.419,3.419,0,0,1,.429,1.66,3.436,3.436,0,0,1-3.42,3.42h-.009ZM72.691-73.98a5.736,5.736,0,0,0-4.93,2.82L58.3-55.07a.451.451,0,0,0,0,.48.5.5,0,0,0,.43.25h96.65a.4.4,0,0,0,.36-.21.393.393,0,0,0,0-.42l-9.11-16.57a4.727,4.727,0,0,0-4.13-2.44Z" fill="#584e53"/>
    <path id="Path_7" data-name="Path 7" d="M58.251-54.59l8.82-15.36a4.365,4.365,0,0,1,3.75-2.19h72a3.3,3.3,0,0,1,2.91,1.76l8.49,15.79Z" fill="#a3d1f6"/>
    <path id="Path_8" data-name="Path 8" d="M162.311-20a1.511,1.511,0,0,0-1.51-1.51H14.031A1.511,1.511,0,0,0,12.521-20a1.511,1.511,0,0,0,1.51,1.51H160.8A1.511,1.511,0,0,0,162.311-20Z" stroke="#584e53" stroke-miterlimit="10" stroke-width="0.5" fill-rule="evenodd"/>
    <path id="Path_9" data-name="Path 9" d="M106.031-14.65h1.86v-61.5h-1.86Z" fill="#626262" fill-rule="evenodd"/>
    <path id="Path_10" data-name="Path 10" d="M153.091-41.61a1.971,1.971,0,0,0-1.97-1.97h-7.19a1.97,1.97,0,0,0-1.97,1.97v7.19a1.97,1.97,0,0,0,1.97,1.97h7.19a1.971,1.971,0,0,0,1.97-1.97Z" fill="#bfb166" fill-rule="evenodd"/>
    <path id="Path_11" data-name="Path 11" d="M151.121-30.95h-7.19a3.5,3.5,0,0,1-3.47-3.47v-7.19a3.5,3.5,0,0,1,3.47-3.47h7.19a3.5,3.5,0,0,1,3.47,3.47v7.19A3.5,3.5,0,0,1,151.121-30.95Zm-7.19-11.13a.472.472,0,0,0-.47.47v7.19a.472.472,0,0,0,.47.47h7.19a.473.473,0,0,0,.47-.47v-7.19a.473.473,0,0,0-.47-.47Z" fill="#584e53"/>
    <path id="Path_12" data-name="Path 12" d="M174.381-50.33a2.511,2.511,0,0,0-2.51-2.51h-4.41a2.511,2.511,0,0,0-2.51,2.51v27.91a2.511,2.511,0,0,0,2.51,2.51h4.41a2.511,2.511,0,0,0,2.51-2.51Z" fill="#584e53" fill-rule="evenodd"/>
    <path id="Path_13" data-name="Path 13" d="M171.871-18.41h-4.4a4.019,4.019,0,0,1-4-4V-50.32a4.019,4.019,0,0,1,4-4h4.4a4.019,4.019,0,0,1,4,4v27.91A4.019,4.019,0,0,1,171.871-18.41Zm-4.4-32.91a1,1,0,0,0-1,1v27.9a1,1,0,0,0,1,1h4.4a1,1,0,0,0,1-1v-27.9a1,1,0,0,0-1-1Z" fill="#584e53"/>
    <path id="Path_14" data-name="Path 14" d="M145.121-86.75a1.181,1.181,0,0,0-1.18-1.18H69.991a1.181,1.181,0,0,0-1.18,1.18,1.181,1.181,0,0,0,1.18,1.18h73.95A1.181,1.181,0,0,0,145.121-86.75Z" fill="#626262" fill-rule="evenodd"/>
    <path id="Path_15" data-name="Path 15" d="M143.941-84.07H69.991a2.693,2.693,0,0,1-2.68-2.68,2.693,2.693,0,0,1,2.68-2.68h73.95a2.693,2.693,0,0,1,2.68,2.68A2.693,2.693,0,0,1,143.941-84.07Z" fill="#584e53"/>
    <path id="Path_16" data-name="Path 16" d="M74.881-80.21h1.87v-4.4h-1.87Z" fill="#584e53" fill-rule="evenodd"/>
    <path id="Path_17" data-name="Path 17" d="M78.941-80.21h1.87v-4.4h-1.87Z" fill="#584e53" fill-rule="evenodd"/>
    <path id="Path_18" data-name="Path 18" d="M8.921-37.24h.4a3.205,3.205,0,0,1,3.19,3.19v9.26H5.691v-9.26a3.205,3.205,0,0,1,3.19-3.19Z"/>
    <path id="Path_19" data-name="Path 19" d="M14.021-23.32h-5.1a4.722,4.722,0,0,1-4.7-4.69v-6.07a4.732,4.732,0,0,1,4.7-4.69h5.1Zm-5.1-12.45a1.708,1.708,0,0,0-1.7,1.69v6.07a1.708,1.708,0,0,0,1.7,1.69h2.1v-9.45Z" fill="#584e53"/>
    <path id="Path_20" data-name="Path 20" d="M8.691-35.14a1.4,1.4,0,0,1,1.39,1.39v7.43H7.3v-7.45A1.4,1.4,0,0,1,8.691-35.14Z" fill="#fff"/>
    <path id="Path_21" data-name="Path 21" d="M52.531-56.41a4.17,4.17,0,0,1,4.15,4.15v8.68h-8.3v-8.68A4.17,4.17,0,0,1,52.531-56.41Z" fill="#bfb166"/>
    <path id="Path_22" data-name="Path 22" d="M58.181-42.08h-5.25a6.089,6.089,0,0,1-6.05-6.06v-3.72a6.088,6.088,0,0,1,6.05-6h5.25Zm-5.25-12.83a3.074,3.074,0,0,0-3.05,3v3.72a3.075,3.075,0,0,0,3.05,3.06h2.25v-9.83Z" fill="#584e53"/>
    <path id="Path_23" data-name="Path 23" d="M52.041-53.9a2.12,2.12,0,0,1,2.11,2.11v6.47h-4.22V-51.8A2.12,2.12,0,0,1,52.041-53.9Z" fill="#efd856"/>
    <path id="Path_24" data-name="Path 24" d="M87.411-43.58h12.45v-2.94H87.411Z" fill="#bfb166" fill-rule="evenodd"/>
    <path id="Path_25" data-name="Path 25" d="M101.361-46.49a1.531,1.531,0,0,0-1.53-1.53H87.441a1.531,1.531,0,0,0-1.53,1.53v2.88a1.531,1.531,0,0,0,1.53,1.53h12.39a1.531,1.531,0,0,0,1.53-1.53Z" fill="#584e53" fill-rule="evenodd"/>
    <path id="Path_26" data-name="Path 26" d="M112.291-43.58h12.45v-2.94h-12.45Z" fill="#584e53" fill-rule="evenodd"/>
    <path id="Path_27" data-name="Path 27" d="M126.241-46.71a1.311,1.311,0,0,0-1.31-1.31H112.1a1.311,1.311,0,0,0-1.31,1.31v3.32a1.311,1.311,0,0,0,1.31,1.31h12.83a1.311,1.311,0,0,0,1.31-1.31Z" fill="#584e53" fill-rule="evenodd"/>
    <path id="Path_28" data-name="Path 28" d="M46.981-28.98a15.338,15.338,0,0,0-15.19,13.77h30.39A15.358,15.358,0,0,0,46.981-28.98Z"/>
    <path id="Path_29" data-name="Path 29" d="M46.981-27.42a13.717,13.717,0,0,1,13.71,13.71A13.717,13.717,0,0,1,46.981,0a13.716,13.716,0,0,1-13.71-13.71A13.716,13.716,0,0,1,46.981-27.42Z" fill="#584e53" fill-rule="evenodd"/>
    <path id="Path_30" data-name="Path 30" d="M46.981-19.23a5.523,5.523,0,0,1,5.52,5.52,5.523,5.523,0,0,1-5.52,5.52,5.523,5.523,0,0,1-5.52-5.52A5.523,5.523,0,0,1,46.981-19.23Z" fill="#bfb166" fill-rule="evenodd"/>
    <path id="Path_31" data-name="Path 31" d="M135.031-28.98a15.347,15.347,0,0,0-15.2,13.77h30.39A15.339,15.339,0,0,0,135.031-28.98Z"/>
    <path id="Path_32" data-name="Path 32" d="M135.031-27.42a13.717,13.717,0,0,1,13.71,13.71A13.717,13.717,0,0,1,135.031,0a13.716,13.716,0,0,1-13.71-13.71A13.716,13.716,0,0,1,135.031-27.42Z" fill="#584e53" fill-rule="evenodd"/>
    <path id="Path_33" data-name="Path 33" d="M135.031-19.23a5.523,5.523,0,0,1,5.52,5.52,5.523,5.523,0,0,1-5.52,5.52,5.522,5.522,0,0,1-5.52-5.52A5.522,5.522,0,0,1,135.031-19.23Z" fill="#bfb166" fill-rule="evenodd"/>
    <path id="Path_34" data-name="Path 34" d="M131.191-68.56l-18.5-.21a1.507,1.507,0,0,1-1.5-1.5,1.507,1.507,0,0,1,1.5-1.5l18.52.21a1.508,1.508,0,0,1,1.5,1.5,1.508,1.508,0,0,1-1.5,1.5Z" fill="#584e53"/>
    <path id="Path_35" data-name="Path 35" d="M146.851-62.16a1.5,1.5,0,0,1-1.41-1,13.8,13.8,0,0,0-2.52-4.33c-.9-.9-4-1.16-5.77-1.05l-.09,0a1.51,1.51,0,0,1-1.5-1.5,1.509,1.509,0,0,1,1.413-1.5c1-.06,5.91-.24,8.07,1.93a16.52,16.52,0,0,1,3.23,5.46,1.508,1.508,0,0,1-.92,1.91A1.422,1.422,0,0,1,146.851-62.16Z" fill="#584e53"/>
    <path id="Path_36" data-name="Path 36" d="M12.521-44.77h-.006a1.507,1.507,0,0,1-1.5-1.5,1.5,1.5,0,0,1,1.116-1.45l22-5.85a1.5,1.5,0,0,1,.385-.05,1.507,1.507,0,0,1,1.5,1.5A1.5,1.5,0,0,1,34.9-50.67l-22,5.85A1.727,1.727,0,0,1,12.521-44.77Z" fill="#584e53"/>
    <path id="Path_37" data-name="Path 37" d="M5.361-42.22s-4.23.41-3.83,5.85" fill="#fff"/>
    <path id="Path_38" data-name="Path 38" d="M1.521-34.87a1.506,1.506,0,0,1-1.49-1.39c-.4-5.46,3.22-7.26,5.19-7.45a1.5,1.5,0,0,1,.15-.007A1.515,1.515,0,0,1,6.878-42.21a1.513,1.513,0,0,1-1.358,1.5c-.47.06-2.77.55-2.5,4.25a1.507,1.507,0,0,1-1.38,1.61Z" fill="#584e53"/>
    <path id="Path_39" data-name="Path 39" d="M40.341-52.4a1.507,1.507,0,0,1-1.5-1.5,1.5,1.5,0,0,1,.936-1.39l4.43-1.82a1.5,1.5,0,0,1,.57-.112,1.509,1.509,0,0,1,1.5,1.5,1.5,1.5,0,0,1-.932,1.39l-4.44,1.82A1.6,1.6,0,0,1,40.341-52.4Z" fill="#584e53"/>
    <path id="Path_40" data-name="Path 40" d="M164.961-60.04a1.5,1.5,0,0,1-1.28-.72l-10.77-17.46a1.506,1.506,0,0,1,.49-2.06,1.489,1.489,0,0,1,.787-.225,1.494,1.494,0,0,1,1.273.715l10.77,17.47a1.511,1.511,0,0,1,.217.78,1.517,1.517,0,0,1-1.487,1.51Z" fill="#584e53"/>
    <path id="Path_41" data-name="Path 41" d="M179.871-37.79a1.506,1.506,0,0,1-1.5-1.48l-.21-12.21a.136.136,0,0,1,0-.02,1.507,1.507,0,0,1,1.481-1.5,1.5,1.5,0,0,1,1.5,1.47l.21,12.21A1.518,1.518,0,0,1,179.871-37.79Z" fill="#584e53"/>
    <path id="Path_42" data-name="Path 42" d="M179.751-26.59h-.06a1.517,1.517,0,0,1-1.44-1.56l.24-5.85a1.508,1.508,0,0,1,1.5-1.441,1.509,1.509,0,0,1,1.5,1.5c0,.02,0,.04,0,.06l-.24,5.85A1.507,1.507,0,0,1,179.751-26.59Z" fill="#584e53"/>
    <path id="Path_43" data-name="Path 43" d="M132.471-80.21h1.87v-4.4h-1.87Z" fill="#584e53" fill-rule="evenodd"/>
    <path id="Path_44" data-name="Path 44" d="M136.521-80.21h1.87v-4.4h-1.87Z" fill="#584e53" fill-rule="evenodd"/>
  </g>
</svg>
