<svg xmlns="http://www.w3.org/2000/svg" width="93.08" height="166.462" viewBox="0 0 93.08 166.462">
  <g id="Group_4" data-name="Group 4" transform="translate(0 166.462)">
    <path id="Path_138" data-name="Path 138" d="M19.65-143.79a2.531,2.531,0,0,0-2.53-2.53H14.14a2.531,2.531,0,0,0-2.53,2.53V-4.03A2.531,2.531,0,0,0,14.14-1.5h2.98a2.531,2.531,0,0,0,2.53-2.53Z" fill="#fff" fill-rule="evenodd"/>
    <path id="Path_139" data-name="Path 139" d="M17.12,0h-3a4.019,4.019,0,0,1-4-4V-143.79a4.019,4.019,0,0,1,4-4h3a4.019,4.019,0,0,1,4,4V-4.02c0,.007,0,.013,0,.02A4.019,4.019,0,0,1,17.12,0Zm-3-144.82a1,1,0,0,0-1,1V-4.02a1,1,0,0,0,1,1h3a1,1,0,0,0,1-1V-143.79a1,1,0,0,0-1-1Z" fill="#584e53"/>
    <path id="Path_140" data-name="Path 140" d="M89.55-107.38,11.27-62.28v-73.68Z" fill="#bfb166"/>
    <path id="Path_141" data-name="Path 141" d="M9.77-59.69V-138.1l83.31,30.42Zm3-74.12v68.93l73.24-42.19Z" fill="#584e53"/>
    <path id="Path_142" data-name="Path 142" d="M15.63-157.96a8.094,8.094,0,0,1,8.09,8.09,8.094,8.094,0,0,1-8.09,8.09,8.094,8.094,0,0,1-8.09-8.09A8.094,8.094,0,0,1,15.63-157.96Z" fill="#bfb166" fill-rule="evenodd"/>
    <path id="Path_143" data-name="Path 143" d="M15.67-140.28a9.636,9.636,0,0,1-9.59-9.59,9.636,9.636,0,0,1,9.59-9.59,9.636,9.636,0,0,1,9.59,9.59A9.645,9.645,0,0,1,15.67-140.28Zm0-16.18a6.622,6.622,0,0,0-6.59,6.59,6.622,6.622,0,0,0,6.59,6.59,6.622,6.622,0,0,0,6.59-6.59A6.631,6.631,0,0,0,15.67-156.46Z" fill="#584e53"/>
    <path id="Path_144" data-name="Path 144" d="M14.55-145.33a5.3,5.3,0,0,1-5.27-5.27,5.3,5.3,0,0,1,5.27-5.27,5.3,5.3,0,0,1,5.27,5.27A5.3,5.3,0,0,1,14.55-145.33Z" fill="#efd856"/>
    <path id="Path_145" data-name="Path 145" d="M54.45-75.75c-.033,0-.067,0-.1,0a1.507,1.507,0,0,1-1.5-1.5,1.5,1.5,0,0,1,.74-1.293l34-19.92a1.5,1.5,0,0,1,.708-.178,1.507,1.507,0,0,1,1.5,1.5,1.5,1.5,0,0,1-.7,1.268l-34,19.92A1.48,1.48,0,0,1,54.45-75.75Z" fill="#584e53"/>
    <path id="Path_146" data-name="Path 146" d="M35.94-64.05a1.469,1.469,0,0,1-.66.19q-.048,0-.1,0a1.507,1.507,0,0,1-1.5-1.5,1.5,1.5,0,0,1,.757-1.3L47.75-74.3a1.5,1.5,0,0,1,.745-.2A1.51,1.51,0,0,1,50-73a1.5,1.5,0,0,1-.758,1.305" fill="#584e53"/>
    <path id="Path_147" data-name="Path 147" d="M1.48-12.71A1.517,1.517,0,0,1,0-14.24L.24-28.63a1.507,1.507,0,0,1,1.5-1.48,1.517,1.517,0,0,1,1.48,1.53L2.98-14.19A1.507,1.507,0,0,1,1.48-12.71Z" fill="#584e53"/>
    <path id="Path_148" data-name="Path 148" d="M1.56-36.29A1.517,1.517,0,0,1,.07-37.81l.08-7a1.507,1.507,0,0,1,1.5-1.48,1.507,1.507,0,0,1,1.49,1.5s0,.007,0,.01l-.08,7A1.507,1.507,0,0,1,1.56-36.29Z" fill="#584e53"/>
    <path id="Path_149" data-name="Path 149" d="M72.53-104.96,13.15-69.17v-58.47Z" fill="#efd856"/>
    <path id="Path_150" data-name="Path 150" d="M39.39-92.95a7.852,7.852,0,0,1-1.27-.1,13.432,13.432,0,0,1-4.54-1.89c-.45-.26-.89-.52-1.35-.75-3-1.52-7.19-2.07-10,.13a1.527,1.527,0,0,1-2.11-.27,1.491,1.491,0,0,1-.315-.916,1.491,1.491,0,0,1,.585-1.184c3.4-2.65,8.59-2.81,13.23-.43.49.26,1,.54,1.46.81a10.74,10.74,0,0,0,3.53,1.54c2.73.44,5.42-1.52,8-3.57a1.5,1.5,0,0,1,.945-.335,1.507,1.507,0,0,1,1.5,1.5A1.5,1.5,0,0,1,48.5-97.25C45.83-95.14,42.81-92.95,39.39-92.95Z" fill="#584e53"/>
    <path id="Path_151" data-name="Path 151" d="M39.39-87.58a7.852,7.852,0,0,1-1.27-.1,13.382,13.382,0,0,1-4.55-1.9c-.44-.25-.89-.51-1.34-.74-3-1.52-7.19-2.07-10,.12a1.517,1.517,0,0,1-2.11-.26,1.491,1.491,0,0,1-.315-.916,1.491,1.491,0,0,1,.585-1.184c3.39-2.65,8.59-2.81,13.23-.43.49.26,1,.53,1.46.81a11,11,0,0,0,3.53,1.54c2.73.44,5.42-1.52,8-3.57a1.5,1.5,0,0,1,.945-.335,1.507,1.507,0,0,1,1.5,1.5A1.5,1.5,0,0,1,48.5-91.88C45.84-89.73,42.81-87.58,39.39-87.58Z" fill="#584e53"/>
    <path id="Path_152" data-name="Path 152" d="M23.21-118.08l-7.09,16.16H34.4Z" fill="#584e53"/>
    <path id="Path_153" data-name="Path 153" d="M17.34-101.92l19.07-18.06,3.47,5.62,3.93-3.4,7.64,15.4Z" fill="#7caad6"/>
    <path id="Path_154" data-name="Path 154" d="M13.53-100.37l23.19-22,3.51,5.69,4.06-3.51,9.56,19.27Zm22.58-17.21-15,14.16L49-103.78l-5.72-11.53-3.8,3.29Z" fill="#584e53"/>
    <path id="Path_155" data-name="Path 155" d="M36.2-118.08,20.39-103.12l24.3-.39Z" fill="#a3d1f6"/>
    <path id="Path_156" data-name="Path 156" d="M21.57-161.66a1.511,1.511,0,0,1-1-.37c-2.22-2-5.52-1.33-5.55-1.32a1.53,1.53,0,0,1-.224.017,1.507,1.507,0,0,1-1.5-1.5,1.5,1.5,0,0,1,1.1-1.447c.19-.05,4.79-1,8.16,2a1.5,1.5,0,0,1,.5,1.12,1.507,1.507,0,0,1-1.5,1.5h0Z" fill="#584e53"/>
    <path id="Path_157" data-name="Path 157" d="M25.26-161.25a1.3,1.3,0,0,1,1.3,1.3,1.3,1.3,0,0,1-1.3,1.3,1.3,1.3,0,0,1-1.3-1.3A1.3,1.3,0,0,1,25.26-161.25Z" fill="#584e53" fill-rule="evenodd"/>
  </g>
</svg>
