<?xml version="1.0" encoding="utf-8"?>
<!-- Generator: Adobe Illustrator 25.2.3, SVG Export Plug-In . SVG Version: 6.00 Build 0)  -->
<svg version="1.1" id="Layer_1" xmlns="http://www.w3.org/2000/svg" xmlns:xlink="http://www.w3.org/1999/xlink" x="0px" y="0px"
	 viewBox="0 0 1920 1080" style="enable-background:new 0 0 1920 1080;" xml:space="preserve">
<style type="text/css">
	.st0{fill:#3ACEC3;}
	.st1{fill:#FFFFFF;}
	.st2{fill:#C33B98;}
	.st3{fill:#5582C7;}
	.st4{fill:#8650CC;}
	.st5{fill:#DC3D62;}
	.st6{fill:#DCEB2F;}
	.st7{fill:#43BAA8;}
	.st8{fill:#429FCA;}
	.st9{fill:#E9713B;}
	.st10{font-family:'Arial-BoldMT';}
	.st11{font-size:20.87px;}
</style>
<g id="レイヤー_2">
	<g id="Honshu_base">
		<path id="honshu_outline_base" class="st0" d="M1324.5,424.3c0-3.6-1.2-7.2-3.4-10.1c2.4-3,3.7-6.7,3.7-10.6l-0.3-56.1
			c0-3.6-1.2-7.1-3.3-10c2.2-2.9,3.3-6.4,3.3-10.1l0.1-27.5c0-9.4-7.6-17-17-17l-74.2,0.3c-9.4,0-17,7.6-17,17v27.2
			c0,3.5,1.1,6.9,3.1,9.7c-2.3,2.9-3.5,6.5-3.5,10.2l-0.2,56c0,3.9,1.3,7.6,3.7,10.6c-2.2,2.9-3.5,6.5-3.5,10.2
			c0,0-0.1,8.6-0.1,14.5s1.4,8.9,1.4,8.9s-4.9,0.7-5.8,5.5c-0.9,4.5-3.5,17.2-4.4,20.7c-1.8,6.5-3.4,9.6-12,9.6
			c-6.6,0-51.3,0.1-51.3,0.1c-3.9,0-7.7,1.4-10.8,3.9c-3-2.3-6.6-3.6-10.4-3.5l-55.4,0.3c-1.6,0-3.2,0.3-4.8,0.7v-6.1
			c-0.1-9.4-7.6-16.9-17-17h-26.9c-9.4,0-17,7.6-17,16.9l-0.2,65.1c0,1,0.1,2,0.3,3h-3.7c-9.4,0.1-16.9,7.8-16.8,17.1v7
			c0,5.7-2.2,8.4-11.2,8.4h-49.7c-3.3,0-4.3,1.1-4.3,1.1s0-11.5-0.1-12.6c0-4.8-1.4-7.3-4-9.8c-3.2-3.2-8.2-4.5-12.8-4.5l-42.2,0.3
			c-1.7,0-3.3,0.3-4.9,0.8v-4.3c0-9.4-7.6-17-17-17l-26.9,0c-4.4,0-8.6,1.7-11.8,4.8c-2.9-2.2-6.5-3.4-10.2-3.4l-57.3,0.3
			c-3.8,0-7.4,1.3-10.4,3.6c-3.1-2.5-6.9-3.9-10.9-3.9l-56,0.3c-9.4,0.1-16.9,7.6-17,17v2.4c-1.6-0.5-3.3-0.8-5.1-0.8l-27.6,0
			c-9.3,0-16.9,7.6-16.9,16.9c0,0,0,0.1,0,0.1l0.3,56c0.1,9.4,7.6,16.9,17,17l26.9,0l0,0c4.1,0,8.1-1.5,11.2-4.2
			c3.1,2.7,7,4.2,11.1,4.2l56,0.2h0.1c4,0,7.8-1.3,10.9-3.9c3,2.3,6.6,3.6,10.4,3.6l57.4,0.2h0.1c4.1,0,8.1-1.5,11.2-4.2
			c3,2.4,6.7,3.7,10.5,3.7h27.5l0,0c1.1,0,2.2-0.1,3.2-0.3l-0.1,25.5c0,4.3,1.6,8.4,4.5,11.6c-1.9,2.8-2.9,6.1-3,9.5v33.4
			c0,9.4,7.6,17,16.9,17l72.9,0.2l0,0c3.5,0,6.9-1.1,9.8-3.1c3.1,2.6,7,4.1,11,4.1l27.5,0l0,0c4.5,0,8.8-1.8,12-5
			c3.1-3.2,4.8-7.5,4.7-12v-63.3c0-1.6-0.2-3.1-0.7-4.6c1.6,0.3,3.1,0.4,4.7,0.5c-0.4,1.3-0.5,2.7-0.5,4.1l0.2,43.2
			c-0.2,4.4,1.5,8.8,4.5,12c3.2,3.2,7.5,5,12,5h26.2l0,0c9.4,0,16.9-7.6,16.9-16.9c0,0,0,0,0-0.1v-0.4c1.1,0.2,2.2,0.3,3.3,0.3l0,0
			h60.4c0.7,0,1.5-0.1,2.2-0.2v18.9c0,9.4,7.6,17,17,17l74,0.2l0,0c9.4,0,17-7.6,17-16.9v-27.5c0-1.5-0.2-3.1-0.6-4.5l27.1,0.1l0,0
			c1.6,0,3.2-0.2,4.7-0.7l0,27.7c0,9.4,7.6,17,17,17l27.5,0l0,0c9.4,0,16.9-7.6,16.9-16.9c0,0,0-0.1,0-0.1l-0.3-91.7
			c0-3.8-1.3-7.6-3.7-10.5c2.6-3.1,4-7,4-11l-0.3-55.8c0-3.9-1.3-7.7-3.6-10.8c2.5-2.8,3.9-6.5,3.9-10.3l0.1-27.5
			c0-3.5-1.1-7-3.2-9.9c2.2-2.9,3.4-6.5,3.3-10.1L1324.5,424.3z"/>
		<path id="honsyu_outline_white" class="st1" d="M1319,480.4l-0.3-56c0-4.5-2.7-8.5-6.8-10.3c4.3-1.6,7.1-5.8,7.1-10.4l-0.3-56
			c0-4.3-2.5-8.2-6.4-10c3.9-1.8,6.4-5.7,6.4-10l0.1-27.5c0-6.2-5-11.1-11.2-11.1l0,0l-74.2,0.3c-6.2,0-11.1,5-11.2,11.2v27.2
			c0,3,1.2,5.8,3.3,7.9c0.8,0.8,1.8,1.5,2.8,2c-3.9,1.8-6.5,5.7-6.5,10.1l-0.2,56c0,4.7,2.9,8.9,7.3,10.5c-4.3,1.7-7.1,5.8-7.1,10.3
			c0,0-0.2,15.6-0.2,19.1s1.1,7,2.6,7.7c-1.6,0-7-0.4-8.4,4.7s-4.1,18.6-5.2,23.8s-4.6,9.8-13,9.8c-7.3,0-53.7-0.1-53.7-0.1
			c-4.9,0-9.2,3.3-10.6,8c-0.5-1.6-1.4-3.1-2.6-4.4c-2.1-2.1-4.9-3.3-7.9-3.3l-55.4,0.3c-4.9,0-9.1,3.2-10.6,7.9l-0.1-19.1
			c0-6.2-5-11.1-11.2-11.2h-26.9c-6.2,0-11.1,5-11.2,11.1l-0.2,65.1c0,3,1.1,5.8,3.2,7.9c0.3,0.3,0.7,0.6,1.1,0.9l-13.5,0.1
			c-6.2,0-11.2,5-11.3,11.1c0,0,0,3.4,0,6.4c0,10.1-4.3,13.6-12.7,13.6h-54.1c-4.3,0-8,0.8-9.9,4.4v-18.6c0-3-0.4-5-2.5-7.1
			c-2.4-2.2-5.5-3.4-8.7-3.4l-42.2,0.3c-5,0-9.4,3.4-10.7,8.3l-0.1-17.6c0-6.2-5-11.1-11.2-11.2h-26.9c-5.8,0-10.6,4.4-11.1,10.2
			c-1.1-5.1-5.6-8.8-10.9-8.8l-57.3,0.3c-4.9,0-9.1,3.2-10.6,7.8c-1.3-4.8-5.7-8.2-10.7-8.1l-56,0.3c-6.1,0-11.1,5-11.2,11.1v16.3
			c-1.1-5.1-5.6-8.8-10.9-8.9h-27.6c-6.1,0-11.1,5-11.1,11.1c0,0,0,0,0,0l0.3,56c0,6.2,5,11.1,11.2,11.2h26.9l0,0
			c6.1,0,11.1-4.9,11.2-11c0.1,6.1,5,11,11.1,11l56,0.2l0,0c4.9,0,9.3-3.3,10.6-8c1.5,4.6,5.7,7.7,10.5,7.8l57.4,0.2l0,0
			c5.4,0,10-3.8,10.9-9.1c1.2,5,5.6,8.6,10.8,8.6l27.5,0.1l0,0c3.6,0,7.1-1.8,9.1-4.8l0,35.8c0,5.1,3.4,9.5,8.3,10.8
			c-4.1,1.8-6.8,5.8-6.8,10.3v33.4c0,6.2,5,11.2,11.1,11.2l72.9,0.2l0,0c4.5,0,8.5-2.7,10.3-6.8c0.5,1.7,1.4,3.2,2.7,4.5
			c2.1,2.1,4.9,3.3,7.9,3.3h27.5l0,0c6.1,0,11.1-5,11.1-11.1l-0.3-58.5c0-4.5-2.8-7.2-6.7-8.9c3.5-0.3,5.9-3.7,5.9-5.5
			s0.4-5,0.3-6.3c1.8,3.6,5.5,6,9.5,6h12.2c-3.7,1.9-6.1,5.7-6.1,9.9l-0.2,43.2c0,6.2,5,11.2,11.1,11.2h0h26.2l0,0
			c6.1,0,11.1-5,11.1-11.2l-0.1-10.8c0.4,0.6,0.9,1.1,1.4,1.7c2.1,2.1,4.9,3.3,7.9,3.3l0,0h60.4c3.1,0,6.1-1.3,8.2-3.7
			c-0.1,0.4-0.1,0.9-0.1,1.3v26.9c0,6.2,5,11.2,11.1,11.2l74,0.2l0,0c6.1,0,11.1-5,11.1-11.1v-27.5c0-4.6-2.8-8.8-7.2-10.4l39.4,0.1
			l0,0c4.8,0,9.1-3.1,10.6-7.7l-0.1,40.6c0,6.2,5,11.2,11.2,11.2c0,0,0,0,0.1,0h27.5l0,0c6.1,0,11.1-5,11.1-11.1c0,0,0,0,0,0
			l-0.3-91.7c0-5-3.4-9.4-8.2-10.7c5-1.2,8.6-5.7,8.5-10.8l-0.3-55.8c0-4.9-3.2-9.9-7.7-11.4c4.6-1.4,8-4.7,8-9.7l0.1-27.5
			c0-2.9-1.2-5.8-3.2-7.9c-0.9-0.8-1.8-1.5-2.9-2c1.1-0.5,2.2-1.3,3.1-2.1C1317.8,486.2,1319,483.4,1319,480.4z"/>
	</g>
	<g id="KYUSHU">
		<g id="okinawa_base">
			<path id="okinawa_outline_base" class="st0" d="M436.3,729.3c-0.1-9.3-7.6-16.7-16.8-16.8h-26.7c-9.2,0-16.7,7.5-16.8,16.7
				l-0.2,55.5c0,9.3,7.5,16.8,16.8,16.9c0,0,0,0,0,0h27.3l0,0c9.3,0,16.8-7.5,16.8-16.7c0,0,0-0.1,0-0.1L436.3,729.3z"/>
			<path id="okinawa_base_white" class="st1" d="M392.5,796c-6.2,0-11.2-5.1-11.2-11.3l0.2-55.5c0-6.2,5-11.2,11.2-11.3h26.6
				c6.2,0,11.2,5,11.3,11.2l0.3,55.6c0,6.2-5,11.2-11.2,11.2H392.5z"/>
		</g>
		<g id="kyusyu_base">
			<path id="kyushu_ouline_base" class="st0" d="M607.7,691.8v-27.5c0-9.4-7.5-17-16.9-17c0,0-0.1,0-0.1,0l-12.7,0.1
				c0.3-1.3,0.5-2.6,0.5-3.9l-0.3-56c-0.1-9.4-7.6-16.9-17-16.9l-71.9-0.1c-3.7,0-7.3,1.3-10.2,3.5c-2.9-2.2-6.5-3.5-10.2-3.5h-26.9
				c-4.1,0-8,1.5-11,4.1c-3.1-2.6-7-4.1-11-4.1h-26.9c-9.4,0-17,7.6-17,16.9l-0.2,56c0,9.4,7.6,17,16.9,17h27.5l0,0
				c3.9,0,7.7-1.4,10.7-3.8c3,2.5,6.8,3.8,10.6,3.8H469h0c0.4,0,0.8,0,1.2-0.1c-0.4,1.5-0.6,3-0.6,4.5l-0.2,76.8
				c0,4.4,1.7,8.6,4.7,11.8c-1.7,2.7-2.6,5.8-2.6,9v26.9c0,9.4,7.6,17,16.9,17l73.7,0.2l0,0c9.4,0,17-7.6,17-16.9l0.1-27.5
				c0-1.5-0.2-3-0.6-4.5l12.1,0.1h0.1c9.4,0,17-7.6,17-16.9v-27.5c0-3.9-1.4-7.8-3.9-10.8C606.3,699.4,607.7,695.7,607.7,691.8z"/>
			<path id="kyusyu_outline_white" class="st1" d="M594.5,703.8c5-1.2,8.5-5.7,8.5-10.8v-27.8c0-6.2-5-11.2-11.2-11.2c0,0,0,0-0.1,0
				l-24.1,0.1c3.6-1.9,5.9-5.7,5.8-9.8l-0.3-56.6c0-6.2-5.1-11.2-11.3-11.3l-72.6,0c-4.5,0-8.6,2.7-10.4,6.9
				c-1.8-4.2-5.9-6.8-10.4-6.9l-27.2,0c-5.6,0-10.4,4.2-11.1,9.8c-0.8-5.6-5.5-9.7-11.1-9.8l-27.2,0c-6.2,0-11.3,5-11.3,11.2
				l-0.2,56.6c0,6.2,5,11.3,11.2,11.3l27.8,0.1l0,0c5.1,0,9.6-3.5,10.8-8.4c1.3,4.9,5.7,8.4,10.8,8.4l27.8,0.1l0,0
				c4.3,0,8.3-2.5,10.1-6.4c0.5,1.1,1.2,2.1,2.1,3c1.2,1.2,2.6,2.1,4.2,2.6c-5.6,0.7-9.9,5.5-9.9,11.1l-0.2,77.6
				c0,5.1,3.5,9.6,8.5,10.9c-3.9,1.9-6.3,5.8-6.4,10.1v27.2c0,6.2,5,11.3,11.2,11.3l74.5,0.2l0,0c6.2,0,11.2-5,11.3-11.2v-27.8
				c0-4.6-2.8-8.8-7.1-10.5l24.6,0.1l0,0c6.2,0.1,11.4-4.9,11.4-11.1c0,0,0-0.1,0-0.1v-27.8C603,709.5,599.5,705,594.5,703.8
				L594.5,703.8z M514.2,751.5L514.2,751.5z"/>
		</g>
		<path id="okinawa_separation" class="st0" d="M451.2,802.8c-1.5,0-2.7-1.2-2.7-2.7v-8c0-1.5,1.2-2.7,2.7-2.7
			c1.5,0,2.7,1.2,2.7,2.7c0,0,0,0,0,0v8C453.8,801.6,452.7,802.8,451.2,802.8L451.2,802.8z M451.2,784.1c-1.5,0-2.7-1.2-2.7-2.7v-8
			c0-1.5,1.2-2.7,2.7-2.7c1.5,0,2.7,1.2,2.7,2.7v8C453.8,782.9,452.7,784.1,451.2,784.1L451.2,784.1z M451.2,821.4
			c-1.5,0-2.7-1.2-2.7-2.7v-8c0-1.5,1.2-2.7,2.7-2.7c1.5,0,2.7,1.2,2.7,2.7c0,0,0,0,0,0v8C453.8,820.2,452.7,821.4,451.2,821.4
			L451.2,821.4z M451.2,765.4c-1.5,0-2.7-1.2-2.7-2.7v-8c0-1.5,1.2-2.7,2.7-2.7c1.5,0,2.7,1.2,2.7,2.7v8
			C453.8,764.2,452.7,765.4,451.2,765.4L451.2,765.4z M451.2,746.7c-1.5,0-2.7-1.2-2.7-2.7v-8c0-1.5,1.2-2.7,2.7-2.7
			c1.5,0,2.7,1.2,2.7,2.7c0,0,0,0,0,0v8C453.8,745.5,452.7,746.7,451.2,746.7L451.2,746.7z M451.2,728c-1.5,0-2.7-1.2-2.7-2.7v-8
			c0-1.5,1.2-2.7,2.7-2.7c1.5,0,2.7,1.2,2.7,2.7v8C453.8,726.8,452.7,728,451.2,728L451.2,728z M451.2,709.4c-1.5,0-2.7-1.2-2.7-2.7
			v-8c0-1.5,1.2-2.7,2.7-2.7c1.5,0,2.7,1.2,2.7,2.7v8C453.8,708.2,452.7,709.4,451.2,709.4L451.2,709.4z M445.4,696.5h-8
			c-1.5,0-2.7-1.2-2.7-2.7c0-1.5,1.2-2.7,2.7-2.7h8c1.5,0,2.7,1.2,2.7,2.7C448.1,695.3,446.9,696.5,445.4,696.5z M426.7,696.5h-8
			c-1.5,0-2.7-1.2-2.7-2.7c0-1.5,1.2-2.7,2.7-2.7h8c1.5,0,2.7,1.2,2.7,2.7C429.4,695.3,428.2,696.5,426.7,696.5z M408.1,696.5h-8
			c-1.5,0-2.7-1.2-2.7-2.7c0-1.5,1.2-2.7,2.7-2.7l0,0h8c1.5,0,2.7,1.2,2.7,2.7C410.7,695.3,409.5,696.5,408.1,696.5z M389.4,696.5
			h-8c-1.5,0-2.7-1.2-2.7-2.7c0-1.5,1.2-2.7,2.7-2.7l0,0h8c1.5,0,2.7,1.2,2.7,2.7C392.1,695.3,390.9,696.5,389.4,696.5z
			 M370.7,696.5h-8c-1.5,0-2.7-1.2-2.7-2.7c0-1.5,1.2-2.7,2.7-2.7h8c1.5,0,2.7,1.2,2.7,2.7C373.4,695.3,372.2,696.5,370.7,696.5z"/>
		<path id="fukuoka" class="st2" d="M481.3,588.3c0-4.4,3.6-7.9,8-7.9l71.9,0c4.4,0,7.9,3.6,8,7.9l0.3,56c0,4.4-3.5,7.9-7.9,7.9l0,0
			l-72.6,0c-4.4,0-7.9-3.6-7.9-7.9L481.3,588.3z"/>
		<path id="saga" class="st2" d="M433.9,588.3c0-4.4,3.6-7.9,8-7.9l26.9,0c4.4,0,8,3.5,8,7.9l0.3,56c0,4.3-3.5,7.9-7.8,7.9
			c0,0,0,0,0,0l-27.5,0c-4.4,0-7.9-3.6-7.9-7.9c0,0,0,0,0,0L433.9,588.3z"/>
		<path id="oita" class="st2" d="M534.7,700.3c-4.4,0-7.9-3.6-7.9-8v-26.9c0-4.4,3.5-8,7.9-8l56-0.3c4.4,0,7.9,3.5,7.9,7.9
			c0,0,0,0,0,0v27.5c0,4.4-3.6,7.9-7.9,7.9L534.7,700.3z"/>
		<path id="miyazaki" class="st2" d="M534.7,749.4c-4.4,0-7.9-3.6-7.9-8v-26.9c0-4.4,3.6-7.9,7.9-8l56-0.3c4.4,0,7.9,3.5,7.9,7.9
			c0,0,0,0,0,0v27.5c0,4.4-3.6,7.9-7.9,7.9L534.7,749.4z"/>
		<path id="kumamoto" class="st2" d="M478.7,665.8c0-4.4,3.6-7.9,8-7.9h26.9c4.4,0,7.9,3.6,8,7.9l0.3,76.8c0,4.4-3.5,7.9-7.9,7.9
			c0,0,0,0,0,0h-27.5c-4.4,0-7.9-3.6-7.9-7.9L478.7,665.8z"/>
		<path id="kagoshima" class="st2" d="M488.4,798.3c-4.4,0-7.9-3.6-7.9-8v-26.9c0-4.4,3.5-8,7.9-8l73.7-0.3c4.4,0,7.9,3.5,7.9,7.9
			c0,0,0,0,0,0l-0.1,27.5c0,4.4-3.6,7.9-7.9,7.9L488.4,798.3z"/>
		<path id="nagasaki" class="st2" d="M384.9,588.3c0-4.4,3.6-7.9,8-7.9l26.9,0c4.4,0,8,3.5,8,7.9l0.3,56c0,4.4-3.5,7.9-7.9,7.9
			c0,0,0,0,0,0l-27.5,0c-4.4,0-7.9-3.6-7.9-7.9L384.9,588.3z"/>
		<path id="okinawa" class="st2" d="M384.8,729c0.1-4.4,3.6-7.9,8-7.9h26.9c4.4,0,8,3.5,8,7.9l0.3,56c0,4.4-3.5,7.9-7.9,7.9
			c0,0,0,0,0,0h-27.5c-4.4,0-7.9-3.6-7.9-8c0,0,0,0,0,0L384.8,729z"/>
	</g>
	<g id="TOHOKU">
		<path id="aomori" class="st3" d="M1233.4,335.3c-4.4,0-7.9-3.5-7.9-7.9v-27.2c0-4.4,3.6-7.9,7.9-7.9l74.2-0.3
			c4.4,0,7.9,3.5,7.9,7.9c0,0,0,0,0,0l-0.1,27.5c0,4.4-3.6,7.9-7.9,7.9L1233.4,335.3z"/>
		<path id="yamagata" class="st3" d="M1215.3,535.6c-5,0-6.8-5.4-3.6-9.6s13.5-17.8,19.3-25.7c3.8-5.3,5.2-7.8,14.5-7.8
			s62.2-0.2,62.2-0.2c4.4,0,7.9,3.5,7.9,7.8c0,0,0,0,0,0l-0.1,27.5c0,4.4-3.6,7.9-7.9,7.9L1215.3,535.6z"/>
		<g id="niigata">
			<g id="sagogashima">
				<path id="sadogashima_outline_base" class="st0" d="M1183.9,437.9h-9.3c-9.4,0-17,7.6-17,17v4.8c0,9.4,7.6,17,17,17h9.3
					c9.4,0,17-7.6,17-17v-4.8C1200.9,445.5,1193.3,437.9,1183.9,437.9z"/>
				<path id="sadogashima_base_white" class="st1" d="M1183.9,443.7h-9.3c-6.2,0-11.1,5-11.2,11.2v4.8c0,6.2,5,11.1,11.2,11.1h9.3
					c6.2,0,11.1-5,11.2-11.1v-4.8C1195.1,448.8,1190.1,443.8,1183.9,443.7z"/>
				<path id="sadogashima" class="st3" d="M1174.6,447h9.3c4.4,0,7.9,3.5,7.9,7.9v4.8c0,4.4-3.5,7.9-7.9,7.9h-9.3
					c-4.4,0-7.9-3.5-7.9-7.9v-4.8C1166.7,450.5,1170.2,447,1174.6,447z"/>
			</g>
			<path id="niigata-2" class="st3" d="M1226.5,454.8c2,0,4.1,1.3,4.1,4.5c0,0,0,18.3,0,23.6s0.5,8.7-2.8,13.3
				c-6.2,8.6-22.8,29.8-26.2,34c-3.6,4.4-6.6,5.4-13.1,5.4h-44.7c-4.4,0-7.9-3.6-7.9-7.9v-27.2c0-4.4,3.6-7.9,7.9-8h53.6
				c10.5,0,15.2-4.8,16.9-13.2c1.1-5.7,3-16.7,3.7-20.7c0.6-3.4,4.6-3.9,6.8-3.9L1226.5,454.8z"/>
		</g>
		<path id="iwate" class="st3" d="M1272.7,347.4c0-4.4,3.6-7.9,7.9-7.9l26.9,0c4.4,0,8,3.5,8,7.9l0.3,56c0,4.4-3.5,7.9-7.9,7.9
			c0,0,0,0,0,0l-27.5-0.1c-4.4,0-7.9-3.6-7.9-7.9L1272.7,347.4z"/>
		<path id="akita" class="st3" d="M1225.1,347.4c0-4.4,3.6-7.9,8-7.9l26.9,0c4.4,0,8,3.5,8,7.9l0.3,56c0,4.4-3.5,7.9-7.8,7.9
			c0,0,0,0,0,0l-27.5-0.1c-4.4,0-7.9-3.6-7.9-7.9L1225.1,347.4z"/>
		<path id="yamagata-2" class="st3" d="M1236.1,462.5c0-6.3-0.5-8.6-5-10.3c-3.6-1.4-6.2-5.4-6.2-12.1s0.1-15.9,0.1-15.9
			c0-4.4,3.6-7.9,8-7.9h26.9c4.4,0,8,3.5,8,7.9l0.3,56.1c0,4.3-3.5,7.9-7.8,7.9c0,0,0,0,0,0l-17.4,0c-4.4,0-6.7-1.5-6.7-5.8
			C1236.1,482.3,1235.9,465.4,1236.1,462.5z"/>
		<path id="miyagi" class="st3" d="M1272.7,424.1c0-4.4,3.6-7.9,7.9-7.9h26.9c4.4,0,8,3.5,8,7.9l0.3,56c0,4.4-3.5,7.9-7.8,7.9
			c0,0,0,0,0,0l-27.5,0c-4.4,0-7.9-3.6-7.9-7.9L1272.7,424.1z"/>
	</g>
	<g id="SHIKOKU">
		<g id="shikoku_base">
			<path id="shikoku_outline_base" class="st0" d="M800.2,700.3V673c0-9.3-7.5-16.8-16.8-16.8c0,0,0,0-0.1,0l-55.4,0.3
				c-3.8,0-7.5,1.3-10.5,3.8c-3-2.6-6.9-4-10.9-4l-55.5,0.3c-9.3,0.1-16.7,7.6-16.8,16.8V700c0,3.7,1.2,7.4,3.5,10.3
				c-2.3,2.9-3.5,6.5-3.5,10.2v26.6c0,9.2,7.4,16.7,16.6,16.8l55.4,0.2h0.1c4,0,7.8-1.4,10.8-4c3,2.4,6.7,3.8,10.5,3.8l55.5,0.2h0.1
				c9.3,0,16.7-7.5,16.8-16.8v-27.2c0-3.6-1.1-7.1-3.3-10C799,707.3,800.2,703.8,800.2,700.3z"/>
			<path id="shikoku_outline_white" class="st1" d="M788.9,710.2c3.9-1.8,6.4-5.7,6.4-10v-27.5c0-6.1-5-11.1-11.1-11.1
				c0,0,0,0-0.1,0l-56,0.3c-5.1,0.1-9.5,3.5-10.8,8.4c-1.1-5.1-5.6-8.7-10.9-8.7l-56,0.3c-6.2,0.1-11.1,5.1-11.2,11.2v26.9
				c0,4.6,2.8,8.7,7,10.4c-4.2,1.7-7,5.8-7,10.3v26.9c0,6.2,5,11.2,11.1,11.2l56,0.2h0.1c5.2,0,9.7-3.6,10.8-8.7
				c1.3,4.9,5.6,8.4,10.7,8.4l56,0.2h0.1c6.1,0,11.1-5,11.1-11.1v-27.5C795.2,715.9,792.7,712,788.9,710.2L788.9,710.2z"/>
		</g>
		<path id="ehime" class="st4" d="M650.4,707.8c-4.4-0.1-7.9-3.6-7.9-8v-26.9c0-4.4,3.5-8,7.9-8l56-0.3c4.4,0,7.9,3.5,7.9,7.8
			c0,0,0,0,0,0l-0.1,27.5c0,4.4-3.6,7.9-7.9,7.9L650.4,707.8z"/>
		<path id="kochi" class="st4" d="M650.4,755.4c-4.4-0.1-7.9-3.6-7.9-8v-26.9c0-4.4,3.5-8,7.9-8l56-0.3c4.3,0,7.9,3.5,7.9,7.8
			c0,0,0,0,0,0l-0.1,27.5c0,4.4-3.6,7.9-7.9,7.9c0,0,0,0,0,0L650.4,755.4z"/>
		<path id="tokushima" class="st4" d="M728,755.4c-4.4,0-7.9-3.6-7.9-8v-26.9c0-4.4,3.5-8,7.9-8l56-0.3c4.3,0,7.9,3.5,7.9,7.8
			c0,0,0,0,0,0v27.5c0,4.4-3.6,7.9-7.9,7.9L728,755.4z"/>
		<path id="kagawa" class="st4" d="M728,707.8c-4.4,0-7.9-3.6-7.9-8v-26.9c0-4.4,3.5-8,7.9-8l56-0.3c4.3,0,7.9,3.5,7.9,7.8
			c0,0,0,0,0,0v27.5c0,4.4-3.6,7.9-7.9,7.9L728,707.8z"/>
	</g>
	<g id="CHUGOKU">
		<path id="shimane" class="st5" d="M651.1,586.6c-4.4,0-7.9-3.6-7.9-8v-26.9c0-4.4,3.5-8,7.9-8l56-0.3c4.4,0,7.9,3.5,7.9,7.9
			c0,0,0,0,0,0v27.5c0,4.4-3.6,7.9-7.9,7.9L651.1,586.6z"/>
		<path id="hiroshima" class="st5" d="M651.1,634.2c-4.4,0-7.9-3.6-7.9-8v-26.9c0-4.4,3.5-8,7.9-8l56-0.3c4.4,0,7.9,3.5,7.9,7.9
			c0,0,0,0,0,0v27.5c0,4.4-3.6,7.9-7.9,7.9L651.1,634.2z"/>
		<path id="okayama" class="st5" d="M728.4,634.2c-4.4,0-7.9-3.6-7.9-8v-26.9c0-4.4,3.5-8,7.9-8l57.4-0.3c4.4,0,7.9,3.5,7.9,7.9
			c0,0,0,0,0,0v27.5c0,4.4-3.6,7.9-7.9,7.9L728.4,634.2z"/>
		<path id="yamaguchi" class="st5" d="M636.8,626.4c0,4.4-3.6,7.9-8,7.9h-26.9c-4.4,0-8-3.5-8-7.9l-0.3-56c0-4.3,3.5-7.9,7.8-7.9
			c0,0,0,0,0,0h27.5c4.4,0,7.9,3.6,7.9,7.9L636.8,626.4z"/>
		<path id="tottori" class="st5" d="M728.5,586.6c-4.4,0-7.9-3.6-7.9-8v-26.9c0-4.4,3.5-8,7.9-8l57.3-0.3c4.4,0,7.9,3.5,7.9,7.9
			c0,0,0,0,0,0v27.5c0,4.4-3.6,7.9-7.9,7.9L728.5,586.6z"/>
	</g>
	<g id="CHUBU">
		<path id="shizuoka" class="st6" d="M1060.8,694.7c-4.4,0-7.9-3.5-7.9-7.9v-27.2c0-4.4,3.5-8,7.9-8l60.4-0.3c4.4,0,7.9,3.5,7.9,7.9
			c0,0,0,0,0,0v27.5c0,4.4-3.6,7.9-7.9,7.9L1060.8,694.7z"/>
		<path id="fukui" class="st6" d="M919.2,600.6c-4.4,0-8.2-1.8-8.2-6.1v-0.9c0-5.2,4-6.4,7.6-6.4h60.6c6.5,0,10.8-4.8,10.8-10.2
			c0-4.4,0-13.1,0-13.1c0-4.4,3.5-8,7.9-8l46.7-0.2c4.4,0,7.9,3.5,7.9,7.9c0,0,0,0,0,0l-0.1,29.2c0,4.4-3.6,7.9-7.9,7.9L919.2,600.6
			z"/>
		<path id="toyama" class="st6" d="M1067.2,535.9c-4.4-0.1-7.9-3.6-7.9-8V501c0-4.4,3.5-8,7.9-8l55.4-0.3c4.3,0,7.9,3.5,7.9,7.8
			c0,0,0,0,0,0v27.5c0,4.4-3.6,7.9-7.9,7.9l0,0L1067.2,535.9z"/>
		<path id="yamanashi" class="st6" d="M1076,647.4c-4.4-0.1-7.9-3.6-7.9-8v-26.9c0-4.4,3.5-8,7.9-8l45.3-0.2c4.3,0,7.9,3.5,7.9,7.8
			c0,0,0,0,0,0v27.5c0,4.4-3.6,7.9-7.9,7.9L1076,647.4z"/>
		<path id="gifu" class="st6" d="M997.8,647.4c-4.4-0.1-7.9-3.6-7.9-8v-26.9c0-4.4,3.5-8,7.9-8l56.8-0.3c4.4,0,7.9,3.5,7.9,7.9
			c0,0,0,0,0,0v27.5c0,4.4-3.6,7.9-7.9,7.9L997.8,647.4z"/>
		<path id="aichi" class="st6" d="M1007.1,660.6c0-4.4,3.6-7.9,8-7.9h25.6c4.4,0,8,3.5,8,7.9l0.2,43.2c0,4.3-3.5,7.9-7.8,7.9
			c0,0,0,0,0,0h-26.2c-4.4,0-7.9-3.6-7.9-7.9L1007.1,660.6z"/>
		<path id="nagano" class="st6" d="M1059,548.4c0-4.4,3.6-7.9,8-7.9h53.3c4.4,0,8,3.5,8,7.9l0.2,43.5c0,4.4-3.5,7.9-7.9,7.9
			c0,0,0,0,0,0l-53.9-0.1c-4.4,0-7.9-3.6-7.9-7.9L1059,548.4z"/>
		<path id="ishikawa" class="st6" d="M1010.6,478.6c0-4.4,3.6-7.9,8-7.9h26.9c4.4,0,8,3.5,8,7.9l0.3,65.1c0,4.3-3.5,7.9-7.8,7.9
			c0,0,0,0-0.1,0h-27.5c-4.4,0-7.9-3.6-7.9-7.9L1010.6,478.6z"/>
	</g>
	<g id="KANTO">
		<path id="ibaragi" class="st7" d="M1272.3,547.5c0-4.4,3.6-7.9,8-7.9h26.9c4.4,0,8,3.5,8,7.9l0.3,57.1c0,4.4-3.5,7.9-7.9,7.9
			c0,0,0,0,0,0l-27.5-0.1c-4.4,0-7.9-3.6-7.9-7.9L1272.3,547.5z"/>
		<path id="chiba" class="st7" d="M1272.4,626.1c0-4.4,3.6-7.9,7.9-7.9h26.9c4.4,0,8,3.5,8,7.9l0.3,91.7c0,4.4-3.5,7.9-7.9,7.9
			c0,0,0,0,0,0H1280c-4.4,0-7.9-3.6-7.9-7.9L1272.4,626.1z"/>
		<path id="tochigi" class="st7" d="M1210.6,584.9c-4.4,0-7.9-3.6-7.9-8v-28.8c0-4.4,3.5-8,7.9-8l48-0.3c4.3,0,7.9,3.5,7.9,7.8
			c0,0,0,0,0,0.1v29.5c0,4.4-3.6,7.9-7.9,7.9L1210.6,584.9z"/>
		<path id="gunma" class="st7" d="M1142,584.9c-4.4,0-7.9-3.6-7.9-8v-28.7c0-4.4,3.5-8,7.9-8l47.3-0.2c4.3,0,7.9,3.5,7.9,7.8
			c0,0,0,0,0,0v29.3c0,4.4-3.6,7.9-7.9,7.9L1142,584.9z"/>
		<path id="tokyo" class="st7" d="M1142,681.4c-4.4,0-7.9-3.6-7.9-7.9v-26.9c0-4.4,3.5-8,7.9-8l116.4-0.3c4.4,0,7.9,3.5,7.9,7.9v0
			l-0.1,27.5c0,4.4-3.6,7.9-7.9,7.9L1142,681.4z"/>
		<path id="kanagawa" class="st7" d="M1140.9,730.4c-4.4,0-7.9-3.6-7.9-8v-26.9c0-4.4,3.6-7.9,7.9-8l74-0.3c4.3,0,7.9,3.5,7.9,7.8
			c0,0,0,0,0,0l-0.1,27.5c0,4.4-3.6,7.9-7.9,7.9L1140.9,730.4z"/>
		<path id="saitama" class="st7" d="M1142,633.1c-4.4,0-7.9-3.6-7.9-7.9v-26.9c0-4.4,3.6-7.9,7.9-7.9l116.6-0.3
			c4.4,0,7.9,3.5,7.9,7.9v27.5c0,4.4-3.6,7.9-7.9,7.9L1142,633.1z"/>
	</g>
	<g id="HOKKAIDO">
		<g id="hokkaido_base">
			<path id="hokkaido_outline_base" class="st0" d="M1391.2,103.2h-157.2c-9.4,0-17,7.6-17,17v138.8c0,9.4,7.6,17,17,17l0,0h28.7
				c9.4,0,17-7.6,17-17l0,0v-14.7h111.5c9.4,0,17-7.6,17-17V120.1C1408.2,110.8,1400.6,103.2,1391.2,103.2L1391.2,103.2z"/>
			<path id="hokkaido_base_white" class="st1" d="M1391.2,109h-157.2c-6.2,0-11.1,5-11.2,11.2v138.8c0,6.2,5,11.1,11.2,11.2h28.7
				c6.2,0,11.1-5,11.2-11.2v-15.9c0-2.6,2.1-4.7,4.7-4.7h112.6c6.2,0,11.1-5,11.2-11.1V120.1C1402.4,114,1397.4,109,1391.2,109z"/>
		</g>
		<path id="hokkaido-2" class="st8" d="M1399.2,227.3c0,4.4-3.6,7.9-7.9,7.9h-112.6c-4.4,0-7.9,3.5-7.9,7.9v15.9
			c0,4.4-3.6,7.9-7.9,7.9H1234c-4.4,0-7.9-3.6-7.9-7.9V120.1c0-4.4,3.6-7.9,7.9-7.9h157.2c4.4,0,7.9,3.6,7.9,7.9V227.3z"/>
	</g>
	<g id="KANSAI">
		<path id="mie" class="st9" d="M942.7,668c0.1-4.4,3.6-7.9,8-7.9h26.9c4.4,0,8,3.5,8,7.9l0.3,56c0,4.4-3.5,7.9-7.8,7.9c0,0,0,0,0,0
			h-27.5c-4.4,0-7.9-3.6-7.9-7.9v0L942.7,668z"/>
		<path id="shiga" class="st9" d="M942.7,612.6c0-4.4,3.6-7.9,8-7.9h26.9c4.4,0,8,3.5,8,7.9l0.3,34c0,4.4-3.5,7.9-7.9,7.9
			c0,0,0,0,0,0l-27.5,0c-4.4,0-7.9-3.6-7.9-7.9L942.7,612.6z"/>
		<path id="wakayama" class="st9" d="M890.2,706.1c0,4.2,3.5,7.5,7.6,7.5c0.1,0,0.2,0,0.3,0h31.5c4.4,0,7.9,2.2,7.9,6.6v2.7
			c0,4.4-3.6,7.9-7.9,7.9l-72.9-0.2c-4.4,0-7.9-3.6-7.9-8v-33.4c0-4.4,3.5-8,7.9-8c0,0,19.6-0.2,26.1-0.2s7.4,5.3,7.4,6.9
			L890.2,706.1z"/>
		<path id="kyoto" class="st9" d="M905,640.1c-6.6,0-10.1-1.2-10.1-9.2c0-0.5,0-15.9,0-16.3c0-6-3.1-9.1-9.3-9.1s-28.8,0-28.8,0
			c-4.4,0-7.9-3.6-7.9-8v-26.9c0-4.4,3.6-7.9,7.9-8l42.4-0.3c4.4,0,7.9,3.5,7.9,7.9c0,0,0,0,0,0c0,0,0,16.7,0,24.3s2.4,9.8,9.3,9.8
			h12.5c9.5,0,9.7,7.2,9.7,7.2V632c0,4.4-3.6,7.9-7.9,7.9C930.6,639.9,911.5,640.1,905,640.1z"/>
		<g id="hyogo">
			<g id="awajishima">
				<g id="awajishima_outline">
					<path id="awajishima_outline_base" class="st0" d="M813.5,640.8h7.5c9.4,0,17,7.6,17,17v0.6c0,9.4-7.6,17-17,17h-7.5
						c-9.4,0-17-7.6-17-17v-0.6C796.5,648.4,804.1,640.8,813.5,640.8z"/>
					<path id="awajishima_outline_white" class="st1" d="M813.5,646.6h7.5c6.2,0,11.2,5,11.2,11.2v0.6c0,6.2-5,11.2-11.2,11.2h-7.5
						c-6.2,0-11.2-5-11.2-11.2v-0.6C802.3,651.6,807.3,646.6,813.5,646.6z"/>
				</g>
				<path id="awajishima-2" class="st9" d="M813.5,649.8h7.5c4.4,0,7.9,3.5,7.9,7.9v0.6c0,4.4-3.5,7.9-7.9,7.9h-7.5
					c-4.4,0-7.9-3.5-7.9-7.9v-0.6C805.6,653.4,809.1,649.8,813.5,649.8z"/>
			</g>
			<path id="hyogo-2" class="st9" d="M799.9,550c0-4.4,3.6-7.9,8-7.9h26.9c4.4,0,8,3.5,8,7.9l0.3,76c0,4.4-3.5,7.9-7.9,7.9
				c0,0,0,0,0,0l-27.5,0c-4.4,0-7.9-3.6-7.9-7.9L799.9,550z"/>
		</g>
		<path id="osaka" class="st9" d="M847.5,618.7c0.1-4.4,3.6-7.9,8-7.9h26.9c4.4,0,8,3.5,8,7.9l0.3,49.6c0,4.3-3.5,7.9-7.8,7.9
			c0,0,0,0,0,0h-27.5c-4.4,0-7.9-3.6-7.9-7.9v0L847.5,618.7z"/>
		<path id="nara" class="st9" d="M895.1,652.5c0-4.4,3.6-7.9,8-7.9H930c4.4,0,8,3.5,8,7.9l0.3,48.8c0,4.3-3.5,7.9-7.8,7.9
			c0,0,0,0-0.1,0l-27.5-0.1c-4.3,0-7.9-2.3-7.9-6.6L895.1,652.5z"/>
	</g>
	<g id="HOKKAIDO_title">
		<g>
			<path class="st0" d="M1250.8,150h122c6.5,0,11.7,5.3,11.7,11.7v16.1c0,6.5-5.3,11.7-11.7,11.7h-122c-6.5,0-11.7-5.3-11.7-11.7
				v-16.1C1239.1,155.2,1244.3,150,1250.8,150z"/>
			<path class="st1" d="M1382.1,161.7v16.2c0,5.1-4.1,9.3-9.3,9.3h-122c-5.1,0-9.3-4.1-9.3-9.3v-16.2c0-5.1,4.1-9.3,9.3-9.3h122
				C1378,152.4,1382.1,156.6,1382.1,161.7z"/>
		</g>
		<text transform="matrix(1 0 0 1 1248.0699 175.54)" class="st0 st10 st11">HOKKAIDO</text>
	</g>
	<g id="TOHOKU_title">
		<g>
			<path class="st0" d="M1348.2,404.8h122c6.5,0,11.7,5.3,11.7,11.7v16.2c0,6.5-5.3,11.7-11.7,11.7h-122c-6.5,0-11.7-5.3-11.7-11.7
				v-16.2C1336.5,410.1,1341.7,404.8,1348.2,404.8z"/>
			<path class="st1" d="M1479.5,416.6v16.2c0,5.1-4.1,9.3-9.3,9.3h-122c-5.1,0-9.3-4.1-9.3-9.3v-16.2c0-5.1,4.1-9.3,9.3-9.3h122
				C1475.4,407.3,1479.5,411.4,1479.5,416.6z"/>
		</g>
		<text transform="matrix(1 0 0 1 1357.08 430.39)" class="st0 st10 st11">TOHOKU</text>
	</g>
	<g id="KANTO_title">
		<g>
			<path class="st0" d="M1348.2,608.9h122c6.5,0,11.7,5.3,11.7,11.7v16.2c0,6.5-5.3,11.7-11.7,11.7h-122c-6.5,0-11.7-5.3-11.7-11.7
				v-16.2C1336.4,614.2,1341.7,608.9,1348.2,608.9z"/>
			<path class="st1" d="M1479.4,620.6v16.2c0,5.1-4.1,9.3-9.3,9.3h-122c-5.1,0-9.3-4.1-9.3-9.3v-16.2c0-5.1,4.1-9.3,9.3-9.3h122
				C1475.3,611.4,1479.4,615.5,1479.4,620.6z"/>
		</g>
		<text transform="matrix(1 0 0 1 1366.29 634.4699)" class="st0 st10 st11">KANTO</text>
	</g>
	<g id="CHUBU_title">
		<g>
			<path class="st0" d="M988.3,412.7h122c6.5,0,11.7,5.3,11.7,11.7v16.2c0,6.5-5.3,11.7-11.7,11.7h-122c-6.5,0-11.7-5.3-11.7-11.7
				v-16.2C976.6,417.9,981.8,412.7,988.3,412.7z"/>
			<path class="st1" d="M1119.6,424.4v16.2c0,5.1-4.1,9.3-9.3,9.3h-122c-5.1,0-9.3-4.1-9.3-9.3v-16.2c0-5.1,4.1-9.3,9.3-9.3h122
				C1115.4,415.1,1119.6,419.3,1119.6,424.4z"/>
		</g>
		<text transform="matrix(1 0 0 1 1006.42 438.2299)" class="st0 st10 st11">CHUBU</text>
	</g>
	<g id="CHUGOKU_title">
		<g>
			<path class="st0" d="M858.7,751.2h122c6.5,0,11.7,5.3,11.7,11.7v16.2c0,6.5-5.3,11.7-11.7,11.7h-122c-6.5,0-11.7-5.3-11.7-11.7
				v-16.2C846.9,756.4,852.2,751.2,858.7,751.2z"/>
			<path class="st1" d="M990,762.9v16.1c0,5.1-4.1,9.3-9.3,9.3h-122c-5.1,0-9.3-4.1-9.3-9.3v-16.1c0-5.1,4.1-9.3,9.3-9.3h122
				C985.8,753.7,990,757.8,990,762.9z"/>
		</g>
		<text transform="matrix(1 0 0 1 884.7 776.7499)" class="st0 st10 st11">KANSAI</text>
	</g>
	<g id="SHIKOKU_title">
		<g>
			<path class="st0" d="M653.8,777.2h122c6.5,0,11.7,5.3,11.7,11.7v16.2c0,6.5-5.3,11.7-11.7,11.7h-122c-6.5,0-11.7-5.3-11.7-11.7
				v-16.2C642,782.4,647.3,777.2,653.8,777.2z"/>
			<path class="st1" d="M785,788.9v16.1c0,5.1-4.1,9.3-9.3,9.3h-122c-5.1,0-9.3-4.1-9.3-9.3v-16.1c0-5.1,4.1-9.3,9.3-9.3h122
				C780.9,779.6,785,783.8,785,788.9z"/>
		</g>
		<text transform="matrix(1 0 0 1 660.29 802.7399)" class="st0 st10 st11">SHIKOKU</text>
	</g>
	<g id="CHUGOKU_title-2">
		<g>
			<path class="st0" d="M653.4,482.2h122c6.5,0,11.7,5.3,11.7,11.7v16.1c0,6.5-5.3,11.7-11.7,11.7h-122c-6.5,0-11.7-5.3-11.7-11.7
				v-16.1C641.7,487.5,647,482.2,653.4,482.2z"/>
			<path class="st1" d="M784.7,493.9v16.1c0,5.1-4.1,9.3-9.3,9.3h-122c-5.1,0-9.3-4.1-9.3-9.3v-16.1c0-5.1,4.1-9.3,9.3-9.3h122
				C780.6,484.7,784.7,488.8,784.7,493.9z"/>
		</g>
		<text transform="matrix(1 0 0 1 655.34 507.78)" class="st0 st10 st11">CHUGOKU</text>
	</g>
	<g id="KYUSHU_title">
		<g>
			<path class="st0" d="M407.8,520h122c6.5,0,11.7,5.3,11.7,11.7v16.2c0,6.5-5.3,11.7-11.7,11.7h-122c-6.5,0-11.7-5.3-11.7-11.7
				v-16.2C396.1,525.3,401.4,520,407.8,520z"/>
			<path class="st1" d="M539.1,531.8v16.1c0,5.1-4.1,9.3-9.3,9.3h-122c-5.1,0-9.3-4.1-9.3-9.3v-16.1c0-5.1,4.1-9.3,9.3-9.3h122
				C535,522.5,539.1,526.7,539.1,531.8z"/>
		</g>
		<text transform="matrix(1 0 0 1 419.93 548.4)" class="st0 st10 st11">KYUSHU</text>
	</g>
	<g>
		<circle class="st0" cx="1020.8" cy="481" r="5"/>
		<rect x="1020.2" y="450" class="st0" width="1" height="31"/>
	</g>
	<g>
		<circle class="st0" cx="731.1" cy="553.1" r="5"/>
		<rect x="730.6" y="522.1" class="st0" width="1" height="31"/>
	</g>
	<g>
		<circle class="st0" cx="705.1" cy="747.3" r="5"/>
		<rect x="704.5" y="747.3" class="st0" width="1" height="31"/>
	</g>
	<g>
		<circle class="st0" cx="491.2" cy="589.4" r="5"/>
		<rect x="490.7" y="558.4" class="st0" width="1" height="31"/>
	</g>
	<g>
		<circle class="st0" cx="1305.8" cy="426.6" r="5"/>
		<rect x="1305.8" y="426.1" class="st0" width="31" height="1"/>
	</g>
	<g>
		<circle class="st0" cx="1305.5" cy="629" r="5"/>
		<rect x="1305.5" y="628.5" class="st0" width="31" height="1"/>
	</g>
</g>
</svg>
