<svg xmlns="http://www.w3.org/2000/svg" viewBox="0 0 1000 1076">
  <defs>
    <style>
      .cls-1, .cls-5 {
        fill: #3acec3;
      }

      .cls-2, .cls-4 {
        fill: #fff;
      }

      .cls-3 {
        fill: #dc3d62;
      }

      .cls-4 {
        font-size: 12px;
      }

      .cls-4, .cls-5 {
        font-family: Arial-Black, Arial Black;
        font-weight: 800;
      }

      .cls-5 {
        font-size: 20.87px;
      }
    </style>
  </defs>
  <g id="CHUGOKU_area" data-name="CHUGOKU area">
    <path id="CHUGOKU_area_outline" data-name="CHUGOKU area outline" class="cls-1" d="M712.89,493l.11-56.27a32.49,32.49,0,0,0-9.94-23.44,34.21,34.21,0,0,0-24.16-9.72l-120.13.54a34.48,34.48,0,0,0-21.85,7.9,34.23,34.23,0,0,0-22.72-8.44l-117.41.54c-18.72.08-34,15-34,33.26v7a34.55,34.55,0,0,0-12.12-2.23l-57.74-.1a34.12,34.12,0,0,0-24.06,9.77A32.44,32.44,0,0,0,259,475.34l.55,114.53c.08,18.27,15.38,33.14,34.08,33.16l56.42.09a34.42,34.42,0,0,0,23.47-9.2,34.4,34.4,0,0,0,23.14,9l117.51.48a34.35,34.35,0,0,0,22.49-8.35A34.36,34.36,0,0,0,558.49,623l120.33.48c18.75,0,34-14.87,34-33.12l.1-56.25a32.32,32.32,0,0,0-7.36-20.63A32.47,32.47,0,0,0,712.89,493Z"/>
    <path id="chugoku_area_outline_white" data-name="chugoku area outline white" class="cls-2" d="M396.71,611.6a22.67,22.67,0,0,1-15.23-6l-8-7.35-8,7.4a22.62,22.62,0,0,1-15.44,6.08l-56.4-.1c-12.33,0-22.41-9.81-22.47-21.85l-.54-114.53a21.31,21.31,0,0,1,6.48-15.44,22.44,22.44,0,0,1,15.81-6.42l57.72.11a22.44,22.44,0,0,1,8,1.47l15.78,5.91,0-23.5c0-12,10.07-21.86,22.4-21.92L514.25,415a22.38,22.38,0,0,1,14.91,5.55l7.55,6.59,7.73-6.39a22.89,22.89,0,0,1,14.39-5.21L679,415a22.26,22.26,0,0,1,15.87,6.39,21.31,21.31,0,0,1,6.54,15.41L701.25,493a21.21,21.21,0,0,1-4.8,13.39l-5.7,7.06,5.74,7A21.08,21.08,0,0,1,701.31,534l-.1,56.25c0,12-10,21.77-22.36,21.78l-120.31-.47a22.39,22.39,0,0,1-14.36-5.19l-7.69-6.34-7.54,6.5a22.64,22.64,0,0,1-14.78,5.5Z"/>
    <g id="CHUGOKU">
      <path id="shimane" class="cls-3" d="M396.19,508.66c-9.47,0-17.2-7.36-17.19-16.26l.1-55c0-8.91,7.76-16.22,17.23-16.26l121.79-.54c9.46-.05,17.2,7.21,17.18,16.11L535.19,493c0,8.9-7.77,16.16-17.24,16.12Z"/>
      <path id="hiroshima" class="cls-3" d="M396.19,605.92c-9.47,0-17.2-7.34-17.19-16.24l.1-55c0-8.9,7.76-16.22,17.23-16.25l121.79-.55c9.46,0,17.2,7.21,17.18,16.11l-.11,56.26c0,8.9-7.77,16.15-17.24,16.12Z"/>
      <path id="okayama" class="cls-3" d="M562.34,605.92a16.27,16.27,0,0,1-16.15-16.24l.08-55a16.33,16.33,0,0,1,16.2-16.25l117.31-.55A16.09,16.09,0,0,1,695.92,534l-.1,56.26A16.19,16.19,0,0,1,679.6,606.4Z"/>
      <path id="yamaguchi" class="cls-3" d="M368.5,589.93c0,8.9-7.72,16.18-17.08,16.16l-57.78-.1c-9.35,0-17-7.3-17.08-16.2L276,475.26c-.05-8.9,7.55-16.17,16.91-16.15l59.15.1c9.35,0,17,7.32,16.94,16.23Z"/>
      <path id="tottori" class="cls-3" d="M562.51,508.66a16.3,16.3,0,0,1-16.17-16.26l.08-55a16.35,16.35,0,0,1,16.21-16.26l117.18-.54A16.1,16.1,0,0,1,696,436.75L695.86,493a16.19,16.19,0,0,1-16.21,16.12Z"/>
    </g>
    <text class="cls-4" transform="translate(588.33 469.58) scale(1.06 1)">TOTTORI</text>
    <text class="cls-4" transform="translate(422.17 469.35) scale(1.06 1)">SHIMANE</text>
    <text class="cls-4" transform="translate(584.96 565.8) scale(1.06 1)">OKAYAMA</text>
    <text class="cls-4" transform="translate(414.82 565.8) scale(1.06 1)">HIROSHIMA</text>
    <text class="cls-4" transform="translate(278.04 537.77) scale(1.06 1)">YAMAGUCHI</text>
    <g id="CHUGOKU_title" data-name="CHUGOKU title">
      <g>
        <rect class="cls-1" x="457.54" y="344.25" width="145.51" height="39.63" rx="11.74"/>
        <rect class="cls-2" x="512.95" y="293.78" width="34.67" height="140.56" rx="9.26" transform="translate(894.35 -166.23) rotate(90)"/>
      </g>
      <text class="cls-5" transform="translate(471.17 369.82)">CHUGOKU</text>
    </g>
  </g>
</svg>
