<svg xmlns="http://www.w3.org/2000/svg" viewBox="0 0 1000 1076">
  <defs>
    <style>
      .cls-1, .cls-5 {
        fill: #3acec3;
      }

      .cls-2, .cls-4 {
        fill: #fff;
      }

      .cls-3 {
        fill: #43baa8;
      }

      .cls-4 {
        font-size: 12px;
      }

      .cls-4, .cls-5 {
        font-family: Arial-Black, Arial Black;
        font-weight: 800;
      }

      .cls-5 {
        font-size: 20.87px;
      }
    </style>
  </defs>
  <g id="KANTO_area" data-name="KANTO area">
    <g>
      <path id="Kanto_area_outline" data-name="Kanto area outline" class="cls-1" d="M675.58,515.91a27.18,27.18,0,0,0-6.65-17.71,27,27,0,0,0,7.12-18.4L675.61,384a27.39,27.39,0,0,0-27.3-27.2l-45.12-.07A27.17,27.17,0,0,0,584.82,364a27,27,0,0,0-17.92-6.67l-80.54.44a27.16,27.16,0,0,0-17.62,6.61,27,27,0,0,0-18.1-6.83l-79.24.43a27.42,27.42,0,0,0-27.2,27.3l-.08,48.12a27.12,27.12,0,0,0,6.85,18,27.16,27.16,0,0,0-6.69,17.8l-.07,45.1A27.06,27.06,0,0,0,351,532.22a27.13,27.13,0,0,0-6.78,17.89l-.08,45.09a27.14,27.14,0,0,0,6.48,17.64,27.24,27.24,0,0,0-8.14,19.34l-.08,45.1a27.31,27.31,0,0,0,27.19,27.3l124.05.42a27.27,27.27,0,0,0,27.25-27.17l.08-46.18a27.16,27.16,0,0,0-1.48-8.82l47.07.1a27.15,27.15,0,0,0,9.1-1.59l-.14,48.08a27.28,27.28,0,0,0,27.18,27.3l46.21.08a27.19,27.19,0,0,0,27.18-27.26Z"/>
      <path id="kanto_area_outline_white" data-name="kanto area outline white" class="cls-2" d="M369.6,695.27a18,18,0,0,1-17.9-18l.07-45.09a17.92,17.92,0,0,1,5.38-12.75l6.14-6.06-5.59-6.58a18,18,0,0,1-4.27-11.6l.08-45.09A18,18,0,0,1,358,538.35l5.37-6.13L358,526.09a17.91,17.91,0,0,1-4.46-11.8l.07-45.09A18,18,0,0,1,358,457.48l5.34-6.15L358,445.22a17.93,17.93,0,0,1-4.52-11.86l.08-48.12a18.08,18.08,0,0,1,17.94-18l79.24-.44a17.68,17.68,0,0,1,11.87,4.49l6.09,5.39,6.16-5.29a17.93,17.93,0,0,1,11.6-4.37L567,366.6A17.72,17.72,0,0,1,578.71,371l6.27,5.46,6.13-5.61a17.91,17.91,0,0,1,12.08-4.74l45.11.07a18.06,18.06,0,0,1,18,17.93l.43,95.77a17.44,17.44,0,0,1-4.68,12.07L656.48,498l5.4,6.25a18,18,0,0,1,4.39,11.66l.48,153.63a17.87,17.87,0,0,1-17.86,17.92l-46.19-.09a17.94,17.94,0,0,1-17.88-17.95l.17-61.32-12.47,4.43a17.87,17.87,0,0,1-6,1.06l-60.1-.14,4.22,12.36a18,18,0,0,1,1,5.8l-.08,46.17a17.94,17.94,0,0,1-17.93,17.88Z"/>
      <path id="ibaraki" class="cls-3" d="M589.89,384a13.34,13.34,0,0,1,13.33-13.26l45.07.07a13.42,13.42,0,0,1,13.35,13.29l.44,95.77a13.22,13.22,0,0,1-13.22,13.25L602.71,493a13.28,13.28,0,0,1-13.22-13.3Z"/>
      <path id="chiba" class="cls-3" d="M589.91,515.85a13.33,13.33,0,0,1,13.31-13.26l45.07.07A13.38,13.38,0,0,1,661.61,516l.49,153.62a13.23,13.23,0,0,1-13.24,13.25l-46.15-.08a13.31,13.31,0,0,1-13.24-13.3Z"/>
      <path id="tochigi" class="cls-3" d="M486.33,446.7a13.36,13.36,0,0,1-13.26-13.33l.07-48.34a13.41,13.41,0,0,1,13.29-13.34l80.54-.44a13.2,13.2,0,0,1,13.26,13.21l-.08,49.4a13.28,13.28,0,0,1-13.3,13.22Z"/>
      <path id="gunma" class="cls-3" d="M371.35,446.7a13.36,13.36,0,0,1-13.26-13.33l.08-48.12a13.43,13.43,0,0,1,13.3-13.35l79.25-.43A13.2,13.2,0,0,1,464,384.67l-.1,49.19a13.26,13.26,0,0,1-13.29,13.22Z"/>
      <path id="tokyo" class="cls-3" d="M371.35,608.53a13.33,13.33,0,0,1-13.26-13.31l.08-45.09a13.38,13.38,0,0,1,13.3-13.31l195.17-.5a13.25,13.25,0,0,1,13.26,13.24l-.08,46.16A13.3,13.3,0,0,1,566.51,609Z"/>
      <path id="kanagawa" class="cls-3" d="M369.62,690.61a13.34,13.34,0,0,1-13.27-13.32l.08-45.08a13.42,13.42,0,0,1,13.3-13.33l124-.46A13.2,13.2,0,0,1,507,631.64l-.08,46.16A13.29,13.29,0,0,1,493.59,691Z"/>
      <path id="saitama" class="cls-3" d="M371.44,527.59a13.31,13.31,0,0,1-13.26-13.29l.07-45.1a13.37,13.37,0,0,1,13.28-13.31l195.44-.5a13.24,13.24,0,0,1,13.26,13.24l-.08,46.16A13.3,13.3,0,0,1,566.85,528Z"/>
      <text class="cls-4" transform="translate(429.68 497.38) scale(1.06 1)">SAITAMA</text>
      <text class="cls-4" transform="translate(435.71 576.18) scale(1.06 1)">TOKYO</text>
      <text class="cls-4" transform="translate(386.56 662.05) scale(1.06 1)">KANAGAWA</text>
      <text class="cls-4" transform="translate(602.41 588.67) scale(1.06 1)">CHIBA</text>
      <text class="cls-4" transform="translate(595.24 437.67) scale(1.06 1)">IBARAKI</text>
      <text class="cls-4" transform="translate(494.79 413.67) scale(1.06 1)">TOCHIGI</text>
      <text class="cls-4" transform="translate(380.44 413.67) scale(1.06 1)">GUNMA</text>
    </g>
    <g id="KANTO_title" data-name="KANTO title">
      <g>
        <rect class="cls-1" x="436.25" y="290.94" width="145.51" height="39.63" rx="11.74"/>
        <rect class="cls-2" x="491.67" y="240.47" width="34.67" height="140.56" rx="9.26" transform="translate(819.76 -198.26) rotate(90)"/>
      </g>
      <text class="cls-5" transform="translate(466.12 316.5)">KANTO</text>
    </g>
  </g>
</svg>
