<svg xmlns="http://www.w3.org/2000/svg" viewBox="0 0 1000 1076">
  <defs>
    <style>
      .cls-1, .cls-5 {
        fill: #3acec3;
      }

      .cls-2, .cls-4 {
        fill: #fff;
      }

      .cls-3 {
        fill: #c33b98;
      }

      .cls-4 {
        font-size: 12px;
      }

      .cls-4, .cls-5 {
        font-family: Arial-Black, Arial Black;
        font-weight: 800;
      }

      .cls-5 {
        font-size: 20.87px;
      }
    </style>
  </defs>
  <g id="KYUSHU_area" data-name="KYUSHU area">
    <g id="KYUSHU">
      <g id="okinawa_base" data-name="okinawa base">
        <path id="okinawa_outline_base" data-name="okinawa outline base" class="cls-1" d="M408.09,565.61a32.65,32.65,0,0,0-32.5-32.4l-51.46-.07a32.58,32.58,0,0,0-32.5,32.34l-.44,107.08a32.49,32.49,0,0,0,32.36,32.58l52.63.09h0a32.38,32.38,0,0,0,32.38-32.51Z"/>
        <path id="okinawa_base_white" data-name="okinawa base white" class="cls-2" d="M323.57,694.37A21.68,21.68,0,0,1,302,672.61l.44-107.08a21.79,21.79,0,0,1,21.73-21.63l51.44.07a21.86,21.86,0,0,1,21.76,21.68l.5,107.12a21.61,21.61,0,0,1-21.62,21.7Z"/>
      </g>
      <g id="kyusyu_base" data-name="kyusyu base">
        <path id="kyushu_ouline_base" data-name="kyushu ouline base" class="cls-1" d="M738.91,493.32l.09-53.14a32.71,32.71,0,0,0-32.83-32.75l-24.54.11a33,33,0,0,0,.87-7.52L682,291.82a32.91,32.91,0,0,0-32.83-32.7L510.33,259a32.57,32.57,0,0,0-19.93,6.82,32.69,32.69,0,0,0-19.79-6.72L418.66,259a32.64,32.64,0,0,0-21.34,8,32.73,32.73,0,0,0-21.22-7.86l-52-.09a32.89,32.89,0,0,0-32.82,32.7l-.45,108.15a32.78,32.78,0,0,0,32.69,32.88l53.15.11h.08a32.4,32.4,0,0,0,20.73-7.43,32.52,32.52,0,0,0,20.56,7.32l53.14.11h.08c.82,0,1.62-.06,2.43-.12a32.11,32.11,0,0,0-1.23,8.65L472,589.65a32.47,32.47,0,0,0,9.11,22.71A32.52,32.52,0,0,0,476,629.82l-.07,51.89a32.85,32.85,0,0,0,32.7,32.87l142.32.48H651a32.81,32.81,0,0,0,32.77-32.7l.1-53.15a32.87,32.87,0,0,0-1.16-8.65l23.33.1h.12A32.83,32.83,0,0,0,738.91,588l.09-53.14a32.43,32.43,0,0,0-7.5-20.88A32.54,32.54,0,0,0,738.91,493.32Zm-362.14-78Zm94.51,0Z"/>
        <path id="kyusyu_outline_white" data-name="kyusyu outline white" class="cls-2" d="M713.41,516.45a21.74,21.74,0,0,0,16.39-20.92l.08-53.68a21.66,21.66,0,0,0-21.74-21.7l-46.6.21a21.15,21.15,0,0,0,5-3.61,21.48,21.48,0,0,0,6.33-15.38l-.53-109.28a21.87,21.87,0,0,0-21.81-21.74l-140.2-.1a21.85,21.85,0,0,0-20.08,13.34,21.9,21.9,0,0,0-20.05-13.25l-52.46-.08a21.79,21.79,0,0,0-21.5,18.87,21.83,21.83,0,0,0-21.5-18.79l-52.47-.08A21.85,21.85,0,0,0,300.42,292L300,401.21A21.73,21.73,0,0,0,321.64,423l53.7.11h.05a21.46,21.46,0,0,0,20.87-16.25A21.48,21.48,0,0,0,417.11,423l53.68.11h.06a21.31,21.31,0,0,0,19.45-12.35,20.81,20.81,0,0,0,12.22,10.92,21.77,21.77,0,0,0-19.11,21.45l-.48,149.73a21.55,21.55,0,0,0,16.32,21,21.89,21.89,0,0,0-12.31,19.52l-.07,52.41a21.83,21.83,0,0,0,21.72,21.82l143.72.48h0a21.77,21.77,0,0,0,21.75-21.69l.11-53.68a21.59,21.59,0,0,0-13.74-20.17l47.52.2h.08a21.79,21.79,0,0,0,21.74-21.69l.08-53.67a21.48,21.48,0,0,0-16.47-21Zm-5.35-5.57ZM558.35,608.46Zm-183-191.65Zm95.46,0Zm181.5,285Zm55.71-95.34Z"/>
      </g>
      <path id="okinawa_separation" data-name="okinawa separation" class="cls-1" d="M436.77,707.46a5.16,5.16,0,0,1-5.15-5.15V686.86a5.16,5.16,0,0,1,10.31,0v15.45a5.16,5.16,0,0,1-5.16,5.15Zm0-36a5.17,5.17,0,0,1-5.15-5.17V650.81a5.16,5.16,0,0,1,10.31,0v15.44a5.17,5.17,0,0,1-5.16,5.17Zm0,72a5.15,5.15,0,0,1-5.15-5.14V722.79a5.16,5.16,0,0,1,10.31,0v15.46a5.15,5.15,0,0,1-5.16,5.14Zm0-108a5.15,5.15,0,0,1-5.15-5.15V614.77a5.16,5.16,0,0,1,10.31,0v15.45a5.15,5.15,0,0,1-5.16,5.15Zm0-36a5.15,5.15,0,0,1-5.15-5.15V578.72a5.16,5.16,0,0,1,10.31,0v15.45a5.15,5.15,0,0,1-5.16,5.15Zm0-36a5.15,5.15,0,0,1-5.15-5.15V542.69a5.16,5.16,0,1,1,10.31,0v15.44a5.15,5.15,0,0,1-5.16,5.15Zm0-36a5.15,5.15,0,0,1-5.15-5.14V506.64a5.16,5.16,0,1,1,10.31,0v15.45a5.15,5.15,0,0,1-5.16,5.14Zm-11.13-24.91H410.19a5.15,5.15,0,0,1,0-10.29h15.45a5.15,5.15,0,1,1,0,10.29Zm-36,0H374.15a5.15,5.15,0,1,1,0-10.29H389.6a5.15,5.15,0,1,1,0,10.29Zm-36,0H338.1a5.15,5.15,0,0,1,0-10.29h15.46a5.15,5.15,0,0,1,0,10.29Zm-36.05,0H302.06a5.15,5.15,0,1,1,0-10.29h15.45a5.15,5.15,0,1,1,0,10.29Zm-36,0H266.05a5.15,5.15,0,1,1,0-10.29H281.5a5.15,5.15,0,1,1,0,10.29Z"/>
      <path id="fukuoka" class="cls-3" d="M495,293.45a15.4,15.4,0,0,1,15.35-15.28l138.79.1a15.44,15.44,0,0,1,15.36,15.3l.52,108.2a15.25,15.25,0,0,1-15.23,15.28l-140-.14a15.28,15.28,0,0,1-15.23-15.31Z"/>
      <path id="saga" class="cls-3" d="M403.32,293.45a15.39,15.39,0,0,1,15.35-15.27l51.92.08A15.46,15.46,0,0,1,486,293.57l.5,108.2A15.2,15.2,0,0,1,471.25,417l-53.16-.11a15.27,15.27,0,0,1-15.22-15.32Z"/>
      <path id="oita" class="cls-3" d="M608.92,509.73c-7.67,0-13.93-6.93-13.92-15.34l.08-51.94c0-8.41,6.28-15.31,13.94-15.36l98.59-.51c7.66,0,13.92,6.82,13.9,15.23L721.43,495c0,8.41-6.3,15.26-14,15.23Z"/>
      <path id="miyazaki" class="cls-3" d="M608.92,604.38c-7.67,0-13.93-6.94-13.92-15.35l.08-51.93c0-8.41,6.28-15.31,13.94-15.35l98.59-.52c7.66,0,13.92,6.81,13.9,15.22l-.08,53.14c0,8.42-6.3,15.27-14,15.24Z"/>
      <path id="kumamoto" class="cls-3" d="M490,443.12c0-8.43,8-15.29,17.7-15.28l59.92.07c9.71,0,17.67,6.91,17.71,15.32l.63,148.3c0,8.41-7.87,15.27-17.57,15.25l-61.35-.09c-9.71,0-17.62-6.91-17.59-15.32Z"/>
      <path id="kagoshima" class="cls-3" d="M508.67,698.75a15.35,15.35,0,0,1-15.27-15.34l.07-51.9a15.44,15.44,0,0,1,15.32-15.35l142.33-.55a15.21,15.21,0,0,1,15.25,15.22l-.1,53.16A15.3,15.3,0,0,1,651,699.23Z"/>
      <path id="nagasaki" class="cls-3" d="M308.79,293.45a15.4,15.4,0,0,1,15.35-15.27l51.93.08a15.44,15.44,0,0,1,15.36,15.31l.52,108.2A15.22,15.22,0,0,1,376.73,417l-53.16-.11a15.29,15.29,0,0,1-15.23-15.32Z"/>
      <path id="okinawa" class="cls-3" d="M308.54,565a15.38,15.38,0,0,1,15.36-15.26l51.92.07a15.46,15.46,0,0,1,15.37,15.32l.5,108.19a15.23,15.23,0,0,1-15.22,15.27l-53.16-.1a15.3,15.3,0,0,1-15.22-15.33Z"/>
    </g>
    <text class="cls-4" transform="translate(311.94 352.87) scale(1.06 1)">NAGASAKI</text>
    <text class="cls-4" transform="translate(425.21 352.62) scale(1.06 1)">SAGA</text>
    <text class="cls-4" transform="translate(544.04 350.82) scale(1.06 1)">FUKUOKA</text>
    <text class="cls-4" transform="translate(639.07 472.82) scale(1.06 1)">OITA</text>
    <text class="cls-4" transform="translate(494.52 520.82) scale(1.06 1)">KUMAMOTO</text>
    <text class="cls-4" transform="translate(619.98 568.82) scale(1.06 1)">MIYAZAKI</text>
    <text class="cls-4" transform="translate(533.86 661.71) scale(1.06 1)">KAGOSHIMA</text>
    <text class="cls-4" transform="translate(314.35 622.71) scale(1.06 1)">OKINAWA</text>
    <g id="KYUSHU_title" data-name="KYUSHU title">
      <g>
        <rect class="cls-1" x="420.97" y="198.03" width="145.51" height="39.63" rx="11.74"/>
        <rect class="cls-2" x="476.39" y="147.56" width="34.67" height="140.56" rx="9.26" transform="translate(711.56 -275.88) rotate(90)"/>
      </g>
      <text class="cls-5" transform="translate(444.79 226.37)">KYUSHU</text>
    </g>
  </g>
</svg>
