<svg xmlns="http://www.w3.org/2000/svg" viewBox="0 0 1000 1076">
  <defs>
    <style>
      .cls-1, .cls-5 {
        fill: #3acec3;
      }

      .cls-2, .cls-4 {
        fill: #fff;
      }

      .cls-3 {
        fill: #8650cc;
      }

      .cls-4 {
        font-size: 12px;
      }

      .cls-4, .cls-5 {
        font-family: Arial-Black, Arial Black;
        font-weight: 800;
      }

      .cls-5 {
        font-size: 20.87px;
      }
    </style>
  </defs>
  <g id="SHIKOKU_area" data-name="SHIKOKU area">
    <g id="SHIKOKU">
      <g id="shikoku_base" data-name="shikoku base">
        <path id="shikoku_outline_base" data-name="shikoku outline base" class="cls-1" d="M677.9,504.78l.1-52a32,32,0,0,0-32.12-32l-105.83.49a31.93,31.93,0,0,0-20,7.16,31.83,31.83,0,0,0-20.85-7.65l-105.83.49a32.28,32.28,0,0,0-32,32.11l-.07,50.78a31.88,31.88,0,0,0,6.76,19.67,32,32,0,0,0-6.69,19.44L361.29,594a32.16,32.16,0,0,0,32,32.17l105.76.44h.19A31.83,31.83,0,0,0,519.89,619a31.83,31.83,0,0,0,20.05,7.19l105.78.44h.18a32.09,32.09,0,0,0,32-32l.08-52a31.66,31.66,0,0,0-6.31-19.07A31.73,31.73,0,0,0,677.9,504.78ZM499.21,609.51Zm146.69,0Z"/>
        <path id="shikoku_outline_white" data-name="shikoku outline white" class="cls-2" d="M656.23,523.67a21.22,21.22,0,0,0,12.19-19.11l.1-52.52a21.19,21.19,0,0,0-21.28-21.22l-106.93.5a21.37,21.37,0,0,0-20.52,16.07,21.13,21.13,0,0,0-20.74-16.57l-106.92.5a21.46,21.46,0,0,0-21.29,21.35l-.06,51.3a21.33,21.33,0,0,0,13.39,19.79,21.45,21.45,0,0,0-13.33,19.72l-.06,51.3A21.35,21.35,0,0,0,392,616.15l106.86.43H499A21.25,21.25,0,0,0,519.68,600a21.34,21.34,0,0,0,20.52,16.13l106.88.43h.13a21.29,21.29,0,0,0,21.22-21.2l.08-52.53a21,21,0,0,0-6.18-15A21.24,21.24,0,0,0,656.23,523.67Z"/>
      </g>
      <path id="ehime" class="cls-3" d="M392,519.16A15.21,15.21,0,0,1,377,504l.07-51.3a15.3,15.3,0,0,1,15.14-15.19l106.92-.5a15,15,0,0,1,15.08,15l-.1,52.52a15.12,15.12,0,0,1-15.15,15.05Z"/>
      <path id="kochi" class="cls-3" d="M392,610A15.22,15.22,0,0,1,377,594.79l.07-51.3a15.29,15.29,0,0,1,15.14-15.18l106.92-.5a15,15,0,0,1,15.08,15l-.1,52.53a15.09,15.09,0,0,1-15.15,15Z"/>
      <path id="tokushima" class="cls-3" d="M540.22,610a15.23,15.23,0,0,1-15.09-15.19l.08-51.3a15.27,15.27,0,0,1,15.13-15.18l106.92-.5a15,15,0,0,1,15.07,15l-.07,52.53a15.11,15.11,0,0,1-15.15,15Z"/>
      <path id="kagawa" class="cls-3" d="M540.23,519.16A15.22,15.22,0,0,1,525.14,504l.08-51.3a15.27,15.27,0,0,1,15.12-15.19l106.93-.5a15,15,0,0,1,15.07,15l-.09,52.52A15.12,15.12,0,0,1,647.1,519.6Z"/>
    </g>
    <text class="cls-4" transform="translate(418.44 482.67) scale(1.06 1)">EHIME</text>
    <text class="cls-4" transform="translate(563.27 480.86) scale(1.06 1)">KAGAWA</text>
    <text class="cls-4" transform="translate(421.4 574.86) scale(1.06 1)">KOCHI</text>
    <text class="cls-4" transform="translate(551.92 572.85) scale(1.06 1)">TOKUSHIMA</text>
    <g id="SHIKOKU_title" data-name="SHIKOKU title">
      <g>
        <rect class="cls-1" x="446.85" y="358.21" width="145.51" height="39.63" rx="11.74"/>
        <rect class="cls-2" x="502.27" y="307.74" width="34.67" height="140.56" rx="9.26" transform="translate(897.63 -141.59) rotate(90)"/>
      </g>
      <text class="cls-5" transform="translate(465.12 383.78)">SHIKOKU</text>
    </g>
  </g>
</svg>
