<svg xmlns="http://www.w3.org/2000/svg" viewBox="0 0 1000 1076">
  <defs>
    <style>
      .cls-1, .cls-5 {
        fill: #3acec3;
      }

      .cls-2, .cls-4 {
        fill: #fff;
      }

      .cls-3 {
        fill: #5582c7;
      }

      .cls-4 {
        font-size: 12px;
      }

      .cls-4, .cls-5 {
        font-family: Arial-Black, Arial Black;
        font-weight: 800;
      }

      .cls-5 {
        font-size: 20.87px;
      }
    </style>
  </defs>
  <g id="TOHOKU_area" data-name="TOHOKU area">
    <g>
      <g id="TOHOKU_zoom_in" data-name="TOHOKU zoom in">
        <path class="cls-1" d="M648.14,513.75a28.74,28.74,0,0,0-7-18.56,28.51,28.51,0,0,0,7.57-19.41l-.52-103a28.66,28.66,0,0,0-6.83-18.29A28.68,28.68,0,0,0,648.24,336l.1-50.6a28.72,28.72,0,0,0-9.27-21.11,32.66,32.66,0,0,0-22.58-8.76l-145.2.53c-17.49.05-31.75,13.46-31.79,29.9l-.07,50a28.38,28.38,0,0,0,6.34,17.89,28.65,28.65,0,0,0-7.21,18.81l-.47,103a28.54,28.54,0,0,0,7.65,19.48,28.4,28.4,0,0,0-7.18,18.64c0,.17-.25,17.35-.25,29.51a48.53,48.53,0,0,0,2,14c-8,3.17-13.57,9.22-15.15,17.17-.56,2.79-1.43,7.46-2.42,12.76-1.55,8.38-3.49,18.81-4.84,25.12-1.79,8.41-4.56,11.93-17.07,11.93-15.2,0-104.88-.08-105-.08-17.48.06-31.73,13.47-31.77,29.91L264,704.12a28.75,28.75,0,0,0,9.3,21.11A32.66,32.66,0,0,0,295.8,734h0l87.4,0c12.36,0,22.41-1.71,31.75-9.22,4.87,5.85,12.3,9.26,20.82,9.26l180.62,0c17.52,0,31.8-13.39,31.84-29.85l.1-50.61a28.38,28.38,0,0,0-6.53-18.12,28.44,28.44,0,0,0,6.85-18.59Z"/>
        <path class="cls-2" d="M295.8,723.79A21.49,21.49,0,0,1,281,718a18.93,18.93,0,0,1-6.13-13.89l.08-50.07c0-10.82,9.42-19.67,20.95-19.71H297c10.51,0,89.61.08,103.81.08,16.65,0,24.69-5.83,27.74-20.13,1.36-6.39,3.29-16.8,4.85-25.17,1-5.45,1.87-10.08,2.42-12.84,1.11-5.56,5.34-8.31,8.69-9.63l8.86-3.51-2.62-8.69a39.17,39.17,0,0,1-1.56-11.2c0-12.12.24-29.2.24-29.36a18.58,18.58,0,0,1,4.72-12.32l5.78-6.61-5.93-6.5a18.7,18.7,0,0,1-5-12.8l.47-103a18.73,18.73,0,0,1,4.75-12.37l5.41-6.2-5.12-6.4A18.59,18.59,0,0,1,450.3,336l.08-50.05c0-10.83,9.42-19.67,20.95-19.71l145.2-.52a21.28,21.28,0,0,1,14.84,5.75,18.89,18.89,0,0,1,6.1,13.88l-.11,50.6a18.74,18.74,0,0,1-4.57,12.18l-5.34,6.31,5.31,6.35a18.83,18.83,0,0,1,4.51,12l.51,103a18.5,18.5,0,0,1-5,12.73L627,495l5.64,6.59a18.83,18.83,0,0,1,4.66,12.23l.51,103a18.5,18.5,0,0,1-4.49,12.2L628,635.26l5.17,6.32a18.54,18.54,0,0,1,4.29,11.88l-.11,50.61c0,10.84-9.42,19.66-21,19.66l-180.62,0a15.56,15.56,0,0,1-12.25-5.34l-7-8.41L407.89,717c-6.14,4.94-12.83,6.77-24.68,6.77l-87.41,0Z"/>
        <path id="aomori" class="cls-3" d="M471.21,350.55c-8.52,0-15.49-6.55-15.47-14.56l.07-50.06c0-8,7-14.58,15.54-14.61l145.2-.52c8.53,0,15.5,6.5,15.48,14.52l-.11,50.6c0,8-7,14.57-15.52,14.57Z"/>
        <text class="cls-4" transform="translate(511.42 313.82) scale(1.06 1)">AOMORI</text>
        <path id="yamagata" class="cls-3" d="M435.78,718.67c-9.82,0-13.3-10-7-17.72,6.12-7.46,26.5-32.8,37.69-47.27,7.48-9.67,10.12-14.31,28.3-14.31S616.55,639,616.55,639c8.53,0,15.5,6.49,15.48,14.49l-.11,50.62c0,8-7,14.56-15.52,14.56Z"/>
        <g id="niigata">
          <path id="niigata-2" data-name="niigata" class="cls-3" d="M457.64,570.11c4,0,8.09,2.36,8.09,8.31,0,0,0,33.6,0,43.42s1,16.06-5.54,24.39c-12.24,15.72-44.71,54.85-51.31,62.46-7,8-13,9.94-25.65,9.94l-87.41,0c-8.54,0-15.5-6.54-15.49-14.54l.08-50.07c0-8,7-14.59,15.52-14.61,0,0,89.69.08,104.89.08,20.49,0,29.78-8.75,33.08-24.24,2.22-10.41,5.83-30.75,7.29-38.07,1.23-6.17,9-7.24,13.42-7.12Z"/>
        </g>
        <path id="iwate" class="cls-3" d="M548,372.71c0-8,7-14.55,15.57-14.55l52.64.09c8.53,0,15.53,6.56,15.58,14.58l.51,103c0,8-6.9,14.54-15.42,14.54L563,490.28c-8.53,0-15.48-6.58-15.45-14.59Z"/>
        <path id="akita" class="cls-3" d="M454.87,372.71c0-8,7-14.55,15.56-14.55l52.64.09c8.54,0,15.54,6.56,15.58,14.58l.52,103c0,8-6.9,14.54-15.43,14.54l-53.9-.11c-8.53,0-15.47-6.58-15.44-14.59Z"/>
        <path id="yamagata-2" data-name="yamagata" class="cls-3" d="M476.54,584.36c0-11.59-1-15.79-9.84-18.92-7.11-2.51-12.07-10-12.07-22.18s.24-29.3.24-29.3c0-8,7-14.55,15.56-14.55l52.64.08c8.54,0,15.54,6.57,15.58,14.58l.52,103c0,8-6.9,14.54-15.43,14.53l-34.13-.1c-8.53,0-13.19-2.72-13.16-10.73C476.45,620.8,476.13,589.72,476.54,584.36Z"/>
        <path id="miyagi" class="cls-3" d="M548,513.72c0-8,7-14.55,15.57-14.54l52.64.07c8.53,0,15.53,6.57,15.58,14.59l.51,103c0,8-6.9,14.55-15.42,14.53L563,631.29c-8.53,0-15.48-6.58-15.45-14.59Z"/>
        <g id="sagogashima">
          <path id="sadogashima_outline_base" data-name="sadogashima outline base" class="cls-1" d="M374.36,539.16H356.17c-18.33,0-33.23,14-33.23,31.21v8.74c0,17.21,14.9,31.21,33.23,31.21h18.19c18.34,0,33.25-14,33.25-31.21v-8.74C407.61,553.16,392.7,539.16,374.36,539.16Z"/>
          <path id="sadogashima_base_white" data-name="sadogashima base white" class="cls-2" d="M374.36,549.86H356.17c-12,0-21.83,9.21-21.83,20.51v8.74c0,11.31,9.79,20.51,21.83,20.51h18.19c12.05,0,21.85-9.2,21.85-20.51v-8.74C396.21,559.07,386.41,549.86,374.36,549.86Z"/>
          <path id="sadogashima" class="cls-3" d="M389.87,579.11c0,8-7,14.56-15.51,14.56H356.17c-8.53,0-15.5-6.55-15.5-14.56v-8.74c0-8,7-14.56,15.5-14.56h18.19c8.55,0,15.51,6.56,15.51,14.56Z"/>
        </g>
      </g>
      <text class="cls-4" transform="translate(474.58 430.37)">AKITA</text>
      <text class="cls-4" transform="translate(567.47 430.2)">IWATE</text>
      <text class="cls-4" transform="translate(564.81 557.2)">MIYAGI</text>
      <text class="cls-4" transform="translate(458.63 557.51)">YAMAGATA</text>
      <text class="cls-4" transform="translate(320.1 682.28)">NIIGATA</text>
      <text class="cls-4" transform="translate(503.44 683.35)">FUKUSHIMA</text>
    </g>
    <g id="TOHOKU_title" data-name="TOHOKU title">
      <g>
        <rect class="cls-1" x="471.32" y="189.85" width="145.51" height="39.63" rx="11.74"/>
        <rect class="cls-2" x="526.74" y="139.39" width="34.67" height="140.56" rx="9.26" transform="translate(753.75 -334.41) rotate(90)"/>
      </g>
      <text class="cls-5" transform="translate(491.91 215.42)">TOHOKU</text>
    </g>
  </g>
</svg>
